<svg xmlns="http://www.w3.org/2000/svg" xmlns:xlink="http://www.w3.org/1999/xlink" width="500" zoomAndPan="magnify" viewBox="0 0 375 374.999991" height="500" preserveAspectRatio="xMidYMid meet" version="1.0"><defs><g/><clipPath id="4c37cbd278"><path d="M 4.726562 6.226562 L 366.976562 6.226562 L 366.976562 368.476562 L 4.726562 368.476562 Z M 4.726562 6.226562 " clip-rule="nonzero"/></clipPath><clipPath id="6f45e81a07"><path d="M 9.609375 10.726562 L 360.609375 10.726562 L 360.609375 361.726562 L 9.609375 361.726562 Z M 9.609375 10.726562 " clip-rule="nonzero"/></clipPath></defs><g clip-path="url(#4c37cbd278)"><path fill="#000000" d="M 366.976562 187.351562 C 366.976562 190.3125 366.902344 193.277344 366.757812 196.238281 C 366.613281 199.199219 366.394531 202.152344 366.101562 205.105469 C 365.8125 208.054688 365.449219 210.996094 365.015625 213.925781 C 364.578125 216.859375 364.074219 219.777344 363.496094 222.6875 C 362.917969 225.59375 362.265625 228.484375 361.546875 231.359375 C 360.828125 234.234375 360.035156 237.089844 359.175781 239.929688 C 358.316406 242.765625 357.386719 245.578125 356.386719 248.371094 C 355.386719 251.160156 354.320312 253.925781 353.1875 256.664062 C 352.054688 259.402344 350.851562 262.113281 349.585938 264.792969 C 348.316406 267.472656 346.984375 270.117188 345.589844 272.730469 C 344.191406 275.347656 342.730469 277.925781 341.207031 280.46875 C 339.683594 283.007812 338.097656 285.511719 336.449219 287.976562 C 334.804688 290.441406 333.097656 292.867188 331.332031 295.246094 C 329.566406 297.628906 327.742188 299.964844 325.863281 302.253906 C 323.980469 304.546875 322.046875 306.789062 320.054688 308.984375 C 318.0625 311.183594 316.019531 313.328125 313.925781 315.425781 C 311.828125 317.519531 309.683594 319.5625 307.484375 321.554688 C 305.289062 323.546875 303.046875 325.480469 300.753906 327.363281 C 298.464844 329.242188 296.125 331.066406 293.746094 332.832031 C 291.363281 334.597656 288.941406 336.304688 286.476562 337.949219 C 284.011719 339.597656 281.507812 341.183594 278.964844 342.707031 C 276.425781 344.230469 273.847656 345.691406 271.230469 347.089844 C 268.617188 348.484375 265.96875 349.816406 263.289062 351.085938 C 260.609375 352.351562 257.902344 353.554688 255.164062 354.6875 C 252.425781 355.820312 249.660156 356.890625 246.867188 357.886719 C 244.078125 358.886719 241.265625 359.816406 238.429688 360.675781 C 235.589844 361.535156 232.734375 362.328125 229.859375 363.046875 C 226.984375 363.765625 224.09375 364.417969 221.1875 364.996094 C 218.277344 365.574219 215.359375 366.078125 212.425781 366.515625 C 209.496094 366.949219 206.554688 367.3125 203.605469 367.601562 C 200.652344 367.894531 197.699219 368.113281 194.738281 368.257812 C 191.777344 368.402344 188.8125 368.476562 185.851562 368.476562 C 182.886719 368.476562 179.921875 368.402344 176.960938 368.257812 C 174.003906 368.113281 171.046875 367.894531 168.097656 367.601562 C 165.148438 367.3125 162.207031 366.949219 159.273438 366.515625 C 156.339844 366.078125 153.421875 365.574219 150.515625 364.996094 C 147.605469 364.417969 144.714844 363.765625 141.839844 363.046875 C 138.964844 362.328125 136.109375 361.535156 133.273438 360.675781 C 130.4375 359.816406 127.621094 358.886719 124.832031 357.886719 C 122.039062 356.886719 119.273438 355.820312 116.535156 354.6875 C 113.796875 353.554688 111.089844 352.351562 108.410156 351.085938 C 105.730469 349.816406 103.082031 348.484375 100.46875 347.089844 C 97.855469 345.691406 95.277344 344.230469 92.734375 342.707031 C 90.191406 341.183594 87.6875 339.597656 85.222656 337.949219 C 82.757812 336.304688 80.335938 334.597656 77.953125 332.832031 C 75.574219 331.066406 73.238281 329.242188 70.945312 327.363281 C 68.652344 325.480469 66.410156 323.546875 64.214844 321.554688 C 62.019531 319.5625 59.871094 317.519531 57.777344 315.425781 C 55.679688 313.328125 53.636719 311.183594 51.644531 308.984375 C 49.65625 306.789062 47.71875 304.546875 45.839844 302.253906 C 43.957031 299.964844 42.136719 297.628906 40.367188 295.246094 C 38.601562 292.867188 36.898438 290.441406 35.25 287.976562 C 33.601562 285.511719 32.019531 283.007812 30.492188 280.46875 C 28.96875 277.925781 27.507812 275.347656 26.113281 272.730469 C 24.714844 270.117188 23.382812 267.472656 22.113281 264.792969 C 20.847656 262.113281 19.648438 259.402344 18.511719 256.664062 C 17.378906 253.925781 16.3125 251.160156 15.3125 248.371094 C 14.3125 245.578125 13.386719 242.765625 12.523438 239.929688 C 11.664062 237.089844 10.875 234.234375 10.152344 231.359375 C 9.433594 228.484375 8.785156 225.59375 8.207031 222.6875 C 7.628906 219.777344 7.121094 216.859375 6.683594 213.925781 C 6.25 210.996094 5.886719 208.054688 5.597656 205.105469 C 5.308594 202.152344 5.089844 199.199219 4.941406 196.238281 C 4.796875 193.277344 4.726562 190.3125 4.726562 187.351562 C 4.726562 184.386719 4.796875 181.421875 4.941406 178.460938 C 5.089844 175.503906 5.308594 172.546875 5.597656 169.597656 C 5.886719 166.648438 6.25 163.707031 6.683594 160.773438 C 7.121094 157.839844 7.628906 154.921875 8.207031 152.015625 C 8.785156 149.105469 9.433594 146.214844 10.152344 143.339844 C 10.875 140.464844 11.664062 137.609375 12.523438 134.773438 C 13.386719 131.9375 14.3125 129.121094 15.3125 126.332031 C 16.3125 123.539062 17.378906 120.773438 18.511719 118.035156 C 19.648438 115.296875 20.847656 112.589844 22.113281 109.910156 C 23.382812 107.230469 24.714844 104.582031 26.113281 101.96875 C 27.507812 99.355469 28.96875 96.777344 30.492188 94.234375 C 32.019531 91.691406 33.601562 89.1875 35.25 86.722656 C 36.898438 84.257812 38.601562 81.835938 40.367188 79.453125 C 42.136719 77.074219 43.957031 74.738281 45.839844 72.445312 C 47.71875 70.15625 49.65625 67.910156 51.644531 65.714844 C 53.636719 63.519531 55.679688 61.371094 57.777344 59.277344 C 59.871094 57.179688 62.019531 55.136719 64.214844 53.144531 C 66.410156 51.15625 68.652344 49.21875 70.945312 47.339844 C 73.238281 45.457031 75.574219 43.636719 77.953125 41.871094 C 80.335938 40.101562 82.757812 38.398438 85.222656 36.75 C 87.6875 35.101562 90.191406 33.519531 92.734375 31.992188 C 95.277344 30.46875 97.855469 29.007812 100.46875 27.613281 C 103.082031 26.214844 105.730469 24.882812 108.410156 23.613281 C 111.089844 22.347656 113.796875 21.148438 116.535156 20.011719 C 119.273438 18.878906 122.039062 17.8125 124.832031 16.8125 C 127.621094 15.8125 130.4375 14.886719 133.273438 14.023438 C 136.109375 13.164062 138.964844 12.375 141.839844 11.652344 C 144.714844 10.933594 147.605469 10.285156 150.515625 9.707031 C 153.421875 9.128906 156.339844 8.621094 159.273438 8.1875 C 162.207031 7.75 165.148438 7.386719 168.097656 7.097656 C 171.046875 6.808594 174.003906 6.589844 176.960938 6.441406 C 179.921875 6.296875 182.886719 6.226562 185.851562 6.226562 C 188.8125 6.226562 191.777344 6.296875 194.738281 6.441406 C 197.699219 6.589844 200.652344 6.808594 203.605469 7.097656 C 206.554688 7.386719 209.496094 7.75 212.425781 8.1875 C 215.359375 8.621094 218.277344 9.128906 221.1875 9.707031 C 224.09375 10.285156 226.984375 10.933594 229.859375 11.652344 C 232.734375 12.375 235.589844 13.164062 238.429688 14.023438 C 241.265625 14.886719 244.078125 15.8125 246.867188 16.8125 C 249.660156 17.8125 252.425781 18.878906 255.164062 20.011719 C 257.902344 21.148438 260.609375 22.347656 263.289062 23.613281 C 265.96875 24.882812 268.617188 26.214844 271.230469 27.613281 C 273.847656 29.007812 276.425781 30.46875 278.964844 31.992188 C 281.507812 33.519531 284.011719 35.101562 286.476562 36.75 C 288.941406 38.398438 291.363281 40.101562 293.746094 41.871094 C 296.125 43.636719 298.464844 45.457031 300.753906 47.339844 C 303.046875 49.21875 305.289062 51.15625 307.484375 53.144531 C 309.683594 55.136719 311.828125 57.179688 313.925781 59.277344 C 316.019531 61.371094 318.0625 63.519531 320.054688 65.714844 C 322.046875 67.910156 323.980469 70.15625 325.863281 72.445312 C 327.742188 74.738281 329.566406 77.074219 331.332031 79.453125 C 333.097656 81.835938 334.804688 84.257812 336.449219 86.722656 C 338.097656 89.1875 339.683594 91.691406 341.207031 94.234375 C 342.730469 96.777344 344.191406 99.355469 345.589844 101.96875 C 346.984375 104.582031 348.316406 107.230469 349.585938 109.910156 C 350.851562 112.589844 352.054688 115.296875 353.1875 118.035156 C 354.320312 120.773438 355.386719 123.539062 356.386719 126.332031 C 357.386719 129.121094 358.316406 131.9375 359.175781 134.773438 C 360.035156 137.609375 360.828125 140.464844 361.546875 143.339844 C 362.265625 146.214844 362.917969 149.105469 363.496094 152.015625 C 364.074219 154.921875 364.578125 157.839844 365.015625 160.773438 C 365.449219 163.707031 365.8125 166.648438 366.101562 169.597656 C 366.394531 172.546875 366.613281 175.503906 366.757812 178.460938 C 366.902344 181.421875 366.976562 184.386719 366.976562 187.351562 Z M 366.976562 187.351562 " fill-opacity="1" fill-rule="nonzero"/></g><g clip-path="url(#6f45e81a07)"><path fill="#ffffff" d="M 360.320312 173.226562 C 357.253906 131.25 339.441406 92.207031 309.378906 62.140625 C 276.222656 28.984375 232.136719 10.726562 185.242188 10.726562 C 147.636719 10.726562 111.777344 22.441406 81.546875 44.609375 C 67 55.28125 54.214844 68.066406 43.542969 82.621094 C 35.257812 93.925781 28.402344 106.113281 23.058594 118.96875 C 22.964844 119.203125 22.871094 119.433594 22.777344 119.65625 C 22.378906 120.625 21.988281 121.597656 21.605469 122.574219 C 21.46875 122.929688 21.332031 123.28125 21.195312 123.636719 C 20.839844 124.5625 20.5 125.484375 20.160156 126.417969 C 20.046875 126.742188 19.921875 127.066406 19.808594 127.394531 C 19.402344 128.527344 19.003906 129.667969 18.628906 130.816406 L 18.550781 131.0625 C 12.714844 148.703125 9.679688 167.339844 9.679688 186.445312 C 9.679688 233.339844 27.941406 277.425781 61.105469 310.589844 C 94.261719 343.746094 138.351562 362.011719 185.25 362.011719 C 232.144531 362.011719 276.230469 343.753906 309.390625 310.589844 C 342.546875 277.433594 360.816406 233.339844 360.816406 186.445312 C 360.816406 182.011719 360.652344 177.605469 360.324219 173.226562 Z M 185.242188 360.4375 C 175.25 360.4375 165.457031 359.578125 155.914062 357.953125 C 154.976562 357.679688 154.058594 357.398438 153.152344 357.101562 C 162.414062 358.667969 171.863281 359.476562 181.421875 359.476562 C 181.6875 359.476562 181.960938 359.476562 182.230469 359.476562 C 224.972656 359.277344 261.90625 345.917969 298.476562 317.445312 C 303.152344 313.804688 307.59375 309.886719 311.796875 305.71875 C 280.050781 339.390625 235.0625 360.4375 185.25 360.4375 Z M 104.71875 340.496094 C 101.289062 338.59375 97.921875 336.578125 94.613281 334.441406 C 96.195312 335.386719 97.785156 336.3125 99.390625 337.199219 C 101.460938 338.507812 103.558594 339.765625 105.667969 340.972656 C 105.347656 340.8125 105.03125 340.660156 104.714844 340.496094 Z M 269.53125 308.558594 C 274.804688 308.558594 280.214844 307.640625 285.648438 305.878906 C 280.304688 307.648438 274.972656 308.59375 269.769531 308.640625 C 236.722656 308.921875 226.191406 313.558594 214.003906 318.933594 C 201.394531 324.488281 187.105469 330.785156 142.996094 332.960938 C 141.445312 333.039062 139.914062 333.074219 138.390625 333.074219 C 131.019531 333.074219 124.015625 332.195312 117.390625 330.671875 C 117.125 330.308594 116.863281 329.941406 116.597656 329.574219 C 122.835938 330.917969 129.152344 331.59375 135.484375 331.59375 C 136.988281 331.59375 138.496094 331.558594 140.007812 331.480469 C 184.765625 329.074219 199.804688 322.335938 211.890625 316.917969 C 224.175781 311.40625 233.882812 307.058594 267.566406 308.523438 C 268.21875 308.550781 268.875 308.566406 269.53125 308.566406 Z M 65.597656 308.472656 C 65.335938 308.191406 65.078125 307.910156 64.816406 307.628906 C 68.660156 311.21875 72.617188 314.582031 76.679688 317.710938 C 77.046875 318.066406 77.414062 318.417969 77.789062 318.765625 C 73.609375 315.574219 69.542969 312.140625 65.597656 308.472656 Z M 59.925781 302.128906 C 59.78125 301.957031 59.632812 301.785156 59.488281 301.617188 C 60.585938 302.730469 61.691406 303.835938 62.808594 304.917969 C 65.953125 307.945312 69.171875 310.804688 72.46875 313.515625 C 72.71875 313.769531 72.964844 314.027344 73.21875 314.28125 C 69.78125 311.464844 66.414062 308.480469 63.140625 305.324219 C 62.050781 304.277344 60.980469 303.207031 59.925781 302.128906 Z M 63.171875 299.957031 C 63.171875 299.957031 63.222656 300.019531 63.25 300.058594 C 63.171875 299.984375 63.089844 299.914062 63.019531 299.839844 C 62.117188 298.980469 61.214844 298.101562 60.324219 297.210938 C 61.039062 297.917969 61.746094 298.621094 62.46875 299.304688 C 62.699219 299.53125 62.9375 299.738281 63.171875 299.957031 Z M 122.273438 338.53125 C 121.96875 338.21875 121.675781 337.910156 121.378906 337.597656 C 121.769531 337.707031 122.15625 337.808594 122.546875 337.910156 C 122.828125 338.226562 123.117188 338.542969 123.40625 338.855469 C 123.023438 338.753906 122.648438 338.636719 122.273438 338.53125 Z M 120.0625 337.886719 C 119.761719 337.582031 119.464844 337.28125 119.167969 336.976562 C 119.578125 337.101562 119.992188 337.207031 120.402344 337.324219 C 120.683594 337.632812 120.972656 337.9375 121.261719 338.242188 C 120.863281 338.125 120.46875 338.011719 120.070312 337.886719 Z M 73.289062 313.5 C 73.058594 313.269531 72.835938 313.039062 72.613281 312.808594 C 74.902344 314.675781 77.226562 316.46875 79.589844 318.179688 C 79.828125 318.417969 80.066406 318.652344 80.304688 318.890625 C 77.933594 317.167969 75.59375 315.378906 73.289062 313.5 Z M 106.425781 331.964844 C 105.738281 331.675781 105.058594 331.378906 104.386719 331.082031 C 104.0625 330.777344 103.746094 330.46875 103.425781 330.15625 C 104.113281 330.453125 104.800781 330.75 105.492188 331.039062 C 105.804688 331.351562 106.113281 331.652344 106.425781 331.964844 Z M 125.777344 347.113281 C 124.910156 346.621094 124.050781 346.113281 123.207031 345.601562 C 123.320312 345.636719 123.4375 345.679688 123.550781 345.722656 C 124.296875 346.203125 125.054688 346.664062 125.820312 347.125 C 125.804688 347.125 125.792969 347.113281 125.777344 347.113281 Z M 121.199219 344.351562 C 120.488281 343.902344 119.796875 343.441406 119.109375 342.980469 C 119.355469 343.066406 119.609375 343.152344 119.855469 343.238281 C 120.480469 343.679688 121.117188 344.121094 121.761719 344.546875 C 121.574219 344.480469 121.386719 344.417969 121.199219 344.34375 Z M 117.363281 341.78125 C 116.777344 341.367188 116.199219 340.949219 115.628906 340.53125 C 116.003906 340.675781 116.371094 340.820312 116.742188 340.957031 C 117.261719 341.355469 117.78125 341.746094 118.308594 342.128906 C 117.988281 342.011719 117.679688 341.894531 117.363281 341.78125 Z M 114.066406 339.359375 C 113.578125 338.984375 113.085938 338.601562 112.601562 338.21875 C 113.050781 338.394531 113.496094 338.566406 113.945312 338.730469 C 114.40625 339.113281 114.875 339.492188 115.347656 339.867188 C 114.921875 339.699219 114.492188 339.527344 114.066406 339.359375 Z M 111.199219 337.09375 C 110.808594 336.773438 110.417969 336.449219 110.03125 336.125 C 110.550781 336.332031 111.070312 336.542969 111.589844 336.746094 C 111.949219 337.054688 112.3125 337.375 112.679688 337.683594 C 112.191406 337.488281 111.691406 337.292969 111.199219 337.09375 Z M 108.597656 334.902344 C 108.261719 334.613281 107.925781 334.320312 107.59375 334.023438 C 108.1875 334.269531 108.78125 334.519531 109.371094 334.757812 C 109.683594 335.046875 110 335.335938 110.320312 335.617188 C 109.746094 335.386719 109.175781 335.148438 108.605469 334.910156 Z M 93.667969 320.542969 C 93.847656 320.753906 94.03125 320.953125 94.203125 321.164062 C 93.207031 320.671875 92.210938 320.175781 91.21875 319.65625 C 91.046875 319.460938 90.867188 319.265625 90.691406 319.070312 C 91.683594 319.582031 92.671875 320.074219 93.660156 320.550781 Z M 89.730469 317.972656 C 80.925781 307.929688 72.820312 296.71875 64.304688 284.953125 C 56.285156 273.859375 47.988281 262.386719 38.40625 250.921875 C 27.398438 237.746094 19.476562 215.78125 16.085938 189.082031 C 16 188.386719 15.929688 187.695312 15.847656 187 C 15.503906 183.902344 15.25 180.816406 15.0625 177.753906 C 15.292969 180.863281 15.597656 183.996094 15.992188 187.160156 C 16.082031 187.855469 16.167969 188.546875 16.261719 189.242188 C 20.074219 216.351562 28.417969 238.214844 39.757812 250.800781 C 51.785156 264.148438 61.464844 277.621094 70.820312 290.644531 C 78.179688 300.886719 85.210938 310.675781 92.792969 319.546875 C 91.769531 319.039062 90.742188 318.519531 89.722656 317.980469 Z M 95.097656 322.183594 C 95.328125 322.441406 95.5625 322.703125 95.792969 322.957031 C 94.816406 322.480469 93.847656 321.996094 92.902344 321.496094 C 92.671875 321.25 92.449219 321 92.222656 320.753906 C 93.175781 321.242188 94.136719 321.71875 95.105469 322.175781 Z M 96.730469 323.988281 C 96.960938 324.242188 97.195312 324.5 97.433594 324.753906 C 96.5 324.308594 95.574219 323.851562 94.664062 323.382812 C 94.433594 323.136719 94.195312 322.890625 93.964844 322.644531 C 94.875 323.109375 95.800781 323.554688 96.730469 323.996094 Z M 98.390625 325.78125 C 98.644531 326.054688 98.90625 326.320312 99.164062 326.589844 C 98.277344 326.171875 97.386719 325.738281 96.523438 325.296875 C 96.261719 325.035156 96.007812 324.769531 95.75 324.5 C 96.621094 324.933594 97.503906 325.359375 98.398438 325.773438 Z M 104.769531 332.152344 C 104.042969 331.828125 103.320312 331.492188 102.597656 331.15625 C 102.316406 330.894531 102.027344 330.632812 101.746094 330.375 C 102.480469 330.714844 103.21875 331.046875 103.953125 331.371094 C 104.230469 331.632812 104.503906 331.890625 104.777344 332.144531 Z M 61.167969 300.929688 C 61.242188 301.023438 61.320312 301.113281 61.394531 301.199219 C 60 299.820312 58.625 298.410156 57.277344 296.980469 C 58.554688 298.324219 59.855469 299.636719 61.164062 300.929688 Z M 65.078125 304.671875 C 67.691406 307.078125 70.515625 309.527344 73.550781 311.945312 C 73.722656 312.136719 73.90625 312.324219 74.078125 312.511719 C 70.972656 310.027344 68.074219 307.519531 65.410156 305.046875 C 65.300781 304.925781 65.1875 304.796875 65.078125 304.671875 Z M 75.730469 313.644531 C 77.753906 315.199219 79.863281 316.730469 82.058594 318.230469 C 82.253906 318.433594 82.441406 318.636719 82.636719 318.832031 C 82.667969 318.859375 82.6875 318.882812 82.71875 318.910156 C 80.507812 317.394531 78.382812 315.839844 76.347656 314.273438 C 76.144531 314.0625 75.933594 313.847656 75.730469 313.636719 Z M 92.355469 324.039062 C 91.117188 323.339844 89.898438 322.628906 88.707031 321.910156 C 88.453125 321.65625 88.199219 321.402344 87.949219 321.148438 C 89.144531 321.871094 90.367188 322.585938 91.609375 323.28125 C 91.855469 323.535156 92.101562 323.785156 92.355469 324.039062 Z M 93.21875 324.164062 C 94.195312 324.691406 95.183594 325.210938 96.1875 325.714844 C 96.457031 325.988281 96.722656 326.257812 97 326.53125 C 96 326.019531 95.011719 325.5 94.035156 324.972656 C 93.761719 324.703125 93.496094 324.429688 93.21875 324.164062 Z M 86.964844 320.832031 C 85.511719 319.921875 84.097656 318.996094 82.710938 318.058594 C 82.5 317.839844 82.292969 317.625 82.082031 317.414062 C 83.453125 318.339844 84.863281 319.257812 86.300781 320.152344 C 86.523438 320.382812 86.742188 320.617188 86.964844 320.839844 Z M 80.1875 316.296875 C 77.8125 314.597656 75.539062 312.871094 73.378906 311.132812 C 73.234375 310.972656 73.082031 310.8125 72.9375 310.648438 C 75.054688 312.34375 77.269531 314.027344 79.597656 315.675781 C 79.792969 315.882812 79.996094 316.085938 80.1875 316.289062 Z M 84.582031 319.921875 C 85.875 320.765625 87.195312 321.597656 88.546875 322.414062 C 88.8125 322.679688 89.082031 322.941406 89.347656 323.207031 C 87.996094 322.386719 86.675781 321.554688 85.375 320.703125 C 85.109375 320.441406 84.839844 320.1875 84.582031 319.921875 Z M 90.257812 323.441406 C 91.386719 324.097656 92.527344 324.738281 93.691406 325.375 C 93.980469 325.65625 94.261719 325.9375 94.550781 326.214844 C 93.378906 325.570312 92.230469 324.921875 91.097656 324.257812 C 90.816406 323.988281 90.539062 323.714844 90.257812 323.445312 Z M 95.378906 326.285156 C 96.304688 326.769531 97.238281 327.246094 98.183594 327.714844 C 98.480469 328.003906 98.773438 328.292969 99.070312 328.582031 C 98.132812 328.113281 97.207031 327.644531 96.296875 327.160156 C 95.996094 326.871094 95.691406 326.582031 95.386719 326.292969 Z M 100.164062 329.628906 C 100.421875 329.875 100.691406 330.128906 100.957031 330.375 C 100.082031 329.949219 99.214844 329.515625 98.347656 329.074219 C 98.082031 328.828125 97.816406 328.582031 97.546875 328.335938 C 98.414062 328.777344 99.289062 329.210938 100.164062 329.636719 Z M 100.632812 329.347656 C 100.3125 329.050781 100.003906 328.75 99.6875 328.445312 C 100.464844 328.820312 101.253906 329.183594 102.046875 329.542969 C 102.351562 329.847656 102.660156 330.152344 102.972656 330.445312 C 102.183594 330.085938 101.40625 329.722656 100.632812 329.355469 Z M 98.507812 327.296875 C 98.21875 327.015625 97.929688 326.726562 97.640625 326.445312 C 98.472656 326.847656 99.308594 327.246094 100.164062 327.636719 C 100.445312 327.925781 100.726562 328.214844 101.007812 328.496094 C 100.164062 328.105469 99.332031 327.703125 98.507812 327.296875 Z M 95.054688 324.558594 C 94 324.011719 92.960938 323.453125 91.941406 322.882812 C 91.695312 322.636719 91.457031 322.386719 91.210938 322.140625 C 92.238281 322.703125 93.269531 323.257812 94.324219 323.800781 C 94.570312 324.054688 94.808594 324.3125 95.054688 324.566406 Z M 90.308594 321.953125 C 89 321.195312 87.714844 320.421875 86.453125 319.632812 C 86.25 319.421875 86.039062 319.207031 85.839844 318.988281 C 87.074219 319.757812 88.34375 320.507812 89.628906 321.242188 C 89.855469 321.480469 90.085938 321.714844 90.308594 321.953125 Z M 84.753906 318.550781 C 83.214844 317.550781 81.714844 316.535156 80.253906 315.507812 C 80.074219 315.320312 79.898438 315.132812 79.71875 314.945312 C 81.164062 315.957031 82.644531 316.953125 84.167969 317.929688 C 84.363281 318.136719 84.558594 318.339844 84.753906 318.550781 Z M 77.785156 313.730469 C 75.253906 311.867188 72.855469 309.96875 70.589844 308.066406 C 70.496094 307.960938 70.402344 307.851562 70.300781 307.742188 C 72.519531 309.59375 74.859375 311.441406 77.335938 313.246094 C 77.480469 313.40625 77.632812 313.574219 77.785156 313.730469 Z M 68.414062 306.203125 C 66.566406 304.59375 64.808594 302.988281 63.15625 301.40625 C 62.265625 300.554688 61.386719 299.6875 60.511719 298.816406 C 61.25 299.550781 61.992188 300.28125 62.746094 300.996094 C 64.449219 302.621094 66.269531 304.277344 68.183594 305.9375 C 68.257812 306.023438 68.335938 306.109375 68.414062 306.195312 Z M 62.792969 301.785156 C 65.242188 304.125 67.917969 306.523438 70.792969 308.90625 C 70.914062 309.042969 71.03125 309.171875 71.152344 309.3125 C 68.292969 306.917969 65.632812 304.527344 63.191406 302.1875 C 62.707031 301.71875 62.222656 301.25 61.742188 300.78125 C 61.703125 300.734375 61.675781 300.699219 61.640625 300.65625 C 62.023438 301.03125 62.410156 301.40625 62.800781 301.777344 Z M 62.839844 303.351562 C 63.480469 303.964844 64.132812 304.570312 64.78125 305.179688 C 64.898438 305.308594 65.011719 305.4375 65.128906 305.574219 C 64.484375 304.976562 63.84375 304.375 63.199219 303.761719 C 60.628906 301.292969 58.144531 298.726562 55.730469 296.097656 C 58.035156 298.597656 60.402344 301.019531 62.839844 303.351562 Z M 55.425781 295.765625 C 54.9375 295.230469 54.445312 294.691406 53.960938 294.148438 C 54.445312 294.691406 54.9375 295.230469 55.425781 295.765625 Z M 51.835938 291.722656 C 51.765625 291.640625 51.691406 291.5625 51.628906 291.476562 C 51.699219 291.554688 51.773438 291.640625 51.835938 291.722656 Z M 68.703125 308.703125 C 71.238281 310.914062 73.824219 313.015625 76.449219 315.011719 C 76.640625 315.210938 76.832031 315.40625 77.023438 315.601562 C 74.382812 313.585938 71.773438 311.46875 69.214844 309.246094 C 69.042969 309.066406 68.878906 308.878906 68.703125 308.695312 Z M 78.699219 316.691406 C 80.636719 318.109375 82.59375 319.46875 84.574219 320.765625 C 84.804688 320.992188 85.035156 321.207031 85.261719 321.433594 C 83.265625 320.125 81.292969 318.757812 79.34375 317.335938 C 79.128906 317.121094 78.917969 316.902344 78.699219 316.691406 Z M 87.203125 322.464844 C 88.410156 323.222656 89.617188 323.960938 90.835938 324.675781 C 91.066406 324.898438 91.304688 325.121094 91.539062 325.339844 C 90.332031 324.632812 89.125 323.910156 87.933594 323.15625 C 87.6875 322.925781 87.441406 322.695312 87.195312 322.457031 Z M 92.578125 325.671875 C 93.652344 326.277344 94.738281 326.878906 95.820312 327.449219 C 96.074219 327.6875 96.328125 327.933594 96.578125 328.171875 C 95.503906 327.601562 94.433594 327.015625 93.371094 326.410156 C 93.105469 326.164062 92.835938 325.917969 92.570312 325.664062 Z M 98.210938 329.675781 C 98.507812 329.941406 98.8125 330.207031 99.109375 330.476562 C 98.117188 329.960938 97.128906 329.441406 96.140625 328.902344 C 95.835938 328.632812 95.53125 328.359375 95.230469 328.09375 C 96.21875 328.632812 97.214844 329.152344 98.210938 329.667969 Z M 100.023438 330.589844 C 100.828125 330.988281 101.628906 331.371094 102.429688 331.746094 C 102.75 332.035156 103.066406 332.316406 103.382812 332.597656 C 102.582031 332.222656 101.789062 331.828125 100.984375 331.429688 C 100.660156 331.148438 100.34375 330.867188 100.019531 330.582031 Z M 104.070312 332.503906 C 104.75 332.816406 105.429688 333.121094 106.113281 333.414062 C 106.425781 333.699219 106.734375 333.980469 107.046875 334.253906 C 106.382812 333.964844 105.71875 333.660156 105.050781 333.359375 C 104.71875 333.070312 104.394531 332.789062 104.0625 332.5 Z M 106.246094 332.824219 C 105.957031 332.5625 105.675781 332.296875 105.386719 332.027344 C 106.027344 332.304688 106.671875 332.578125 107.3125 332.835938 C 107.589844 333.105469 107.871094 333.371094 108.152344 333.640625 C 107.515625 333.371094 106.878906 333.097656 106.246094 332.824219 Z M 102.371094 329.140625 C 102.078125 328.851562 101.789062 328.554688 101.492188 328.257812 C 102.214844 328.582031 102.949219 328.894531 103.679688 329.195312 C 103.96875 329.492188 104.25 329.789062 104.539062 330.085938 C 103.808594 329.773438 103.082031 329.457031 102.367188 329.132812 Z M 100.488281 327.230469 C 100.210938 326.949219 99.945312 326.675781 99.679688 326.394531 C 100.445312 326.742188 101.21875 327.082031 101.996094 327.40625 C 102.265625 327.695312 102.523438 327.976562 102.792969 328.257812 C 102.019531 327.925781 101.246094 327.578125 100.488281 327.230469 Z M 98.71875 325.382812 C 98.464844 325.117188 98.21875 324.847656 97.964844 324.582031 C 98.769531 324.949219 99.578125 325.304688 100.394531 325.648438 C 100.640625 325.925781 100.890625 326.199219 101.144531 326.480469 C 100.328125 326.128906 99.519531 325.757812 98.71875 325.390625 Z M 97.050781 323.578125 C 96.804688 323.300781 96.550781 323.035156 96.304688 322.761719 C 97.144531 323.152344 97.988281 323.519531 98.832031 323.878906 C 99.078125 324.164062 99.324219 324.445312 99.570312 324.726562 C 98.71875 324.351562 97.878906 323.96875 97.042969 323.578125 Z M 95.429688 321.777344 C 95.234375 321.554688 95.039062 321.335938 94.847656 321.113281 C 95.710938 321.511719 96.578125 321.902344 97.453125 322.269531 C 97.65625 322.507812 97.859375 322.746094 98.058594 322.976562 C 97.179688 322.585938 96.304688 322.191406 95.429688 321.777344 Z M 94 320.144531 C 86.121094 311.042969 78.859375 300.945312 71.253906 290.355469 C 61.882812 277.316406 52.207031 263.839844 40.15625 250.46875 C 28.886719 237.957031 20.585938 216.191406 16.789062 189.191406 C 16.695312 188.496094 16.609375 187.808594 16.519531 187.117188 C 16.175781 184.363281 15.898438 181.628906 15.683594 178.910156 C 15.941406 181.675781 16.269531 184.472656 16.664062 187.28125 C 16.757812 187.976562 16.859375 188.664062 16.960938 189.355469 C 21.128906 216.351562 30.078125 238.585938 41.515625 250.359375 C 55.867188 265.136719 66.535156 280.242188 76.851562 294.84375 C 83.484375 304.234375 89.832031 313.210938 96.6875 321.382812 C 95.785156 320.984375 94.890625 320.578125 93.992188 320.152344 Z M 15.328125 187.066406 C 15.410156 187.761719 15.488281 188.453125 15.566406 189.152344 C 18.960938 215.953125 26.929688 238.015625 38.003906 251.269531 C 47.566406 262.71875 55.859375 274.183594 63.878906 285.269531 C 72.097656 296.640625 79.945312 307.484375 88.402344 317.265625 C 87.195312 316.597656 85.996094 315.914062 84.796875 315.199219 C 74.859375 303.898438 65.726562 291.179688 56.121094 277.808594 C 49.945312 269.207031 43.558594 260.3125 36.660156 251.414062 C 25.910156 237.539062 18.363281 215.367188 15.394531 189.007812 C 15.320312 188.316406 15.25 187.621094 15.183594 186.921875 C 14.882812 183.78125 14.664062 180.652344 14.527344 177.546875 C 14.714844 180.695312 14.976562 183.875 15.328125 187.066406 Z M 89.390625 318.398438 C 89.542969 318.570312 89.703125 318.75 89.855469 318.925781 C 88.675781 318.28125 87.507812 317.617188 86.34375 316.929688 C 86.207031 316.773438 86.0625 316.621094 85.925781 316.460938 C 87.074219 317.132812 88.230469 317.785156 89.390625 318.398438 Z M 90.886719 320.082031 C 91.097656 320.3125 91.304688 320.550781 91.515625 320.78125 C 90.359375 320.160156 89.234375 319.523438 88.113281 318.875 C 87.902344 318.652344 87.703125 318.425781 87.492188 318.203125 C 88.617188 318.847656 89.746094 319.480469 90.878906 320.082031 Z M 92.5625 321.929688 C 92.785156 322.167969 93.011719 322.414062 93.234375 322.652344 C 92.128906 322.066406 91.03125 321.460938 89.960938 320.847656 C 89.753906 320.628906 89.542969 320.40625 89.339844 320.183594 C 90.394531 320.78125 91.480469 321.359375 92.570312 321.929688 Z M 88.375 319.929688 C 87.007812 319.121094 85.671875 318.296875 84.363281 317.453125 C 84.183594 317.257812 83.996094 317.0625 83.816406 316.867188 C 85.109375 317.691406 86.4375 318.5 87.789062 319.285156 C 87.984375 319.503906 88.179688 319.710938 88.378906 319.929688 Z M 82.703125 316.367188 C 81.054688 315.277344 79.460938 314.164062 77.914062 313.039062 C 77.769531 312.886719 77.632812 312.726562 77.488281 312.574219 C 79.011719 313.671875 80.570312 314.757812 82.191406 315.820312 C 82.355469 316.007812 82.53125 316.1875 82.703125 316.367188 Z M 75.464844 311.210938 C 72.8125 309.1875 70.316406 307.136719 67.972656 305.09375 C 67.921875 305.035156 67.878906 304.976562 67.828125 304.925781 C 70.113281 306.90625 72.554688 308.890625 75.140625 310.847656 C 75.25 310.972656 75.355469 311.09375 75.464844 311.21875 Z M 65.769531 303.121094 C 64.910156 302.339844 64.074219 301.558594 63.265625 300.785156 C 64.058594 301.53125 64.867188 302.28125 65.707031 303.039062 C 65.726562 303.070312 65.75 303.089844 65.769531 303.121094 Z M 54.453125 295.484375 C 57.152344 298.484375 59.949219 301.371094 62.824219 304.136719 C 64.6875 305.929688 66.574219 307.65625 68.488281 309.324219 C 68.675781 309.527344 68.863281 309.730469 69.050781 309.933594 C 67.0625 308.191406 65.097656 306.398438 63.171875 304.542969 C 60.179688 301.660156 57.289062 298.65625 54.507812 295.558594 C 54.488281 295.535156 54.472656 295.507812 54.453125 295.484375 Z M 81.910156 319.84375 C 83.714844 321.097656 85.535156 322.3125 87.375 323.476562 C 87.652344 323.734375 87.925781 323.996094 88.199219 324.25 C 86.359375 323.085938 84.53125 321.871094 82.71875 320.617188 C 82.441406 320.363281 82.175781 320.101562 81.910156 319.84375 Z M 90.070312 325.136719 C 91.167969 325.792969 92.265625 326.4375 93.378906 327.066406 C 93.675781 327.339844 93.972656 327.609375 94.269531 327.875 C 93.167969 327.253906 92.078125 326.617188 90.996094 325.96875 C 90.683594 325.695312 90.375 325.417969 90.070312 325.136719 Z M 96.183594 329.574219 C 96.523438 329.867188 96.859375 330.164062 97.207031 330.460938 C 96.246094 329.941406 95.285156 329.40625 94.339844 328.863281 C 93.972656 328.554688 93.601562 328.242188 93.234375 327.925781 C 94.21875 328.488281 95.199219 329.039062 96.1875 329.574219 Z M 98.089844 330.589844 C 98.992188 331.0625 99.894531 331.523438 100.796875 331.972656 C 101.152344 332.28125 101.511719 332.585938 101.875 332.886719 C 100.972656 332.441406 100.074219 331.984375 99.1875 331.515625 C 98.820312 331.210938 98.457031 330.902344 98.089844 330.589844 Z M 102.691406 332.886719 C 103.425781 333.234375 104.15625 333.589844 104.894531 333.921875 C 105.246094 334.226562 105.601562 334.527344 105.957031 334.832031 C 105.253906 334.507812 104.546875 334.1875 103.847656 333.847656 C 103.457031 333.53125 103.066406 333.214844 102.683594 332.886719 Z M 106.613281 334.6875 C 106.917969 334.824219 107.21875 334.960938 107.53125 335.089844 C 107.832031 335.222656 108.136719 335.34375 108.441406 335.46875 C 108.800781 335.777344 109.164062 336.089844 109.523438 336.390625 C 108.945312 336.144531 108.367188 335.90625 107.796875 335.65625 C 107.398438 335.328125 107.011719 335.003906 106.621094 334.679688 Z M 110.898438 337.539062 C 111.359375 337.921875 111.828125 338.296875 112.304688 338.667969 C 111.800781 338.457031 111.300781 338.25 110.800781 338.03125 C 110.3125 337.65625 109.820312 337.273438 109.328125 336.890625 C 109.847656 337.113281 110.375 337.324219 110.898438 337.539062 Z M 113.820312 339.84375 C 114.347656 340.242188 114.875 340.640625 115.402344 341.027344 C 115.019531 340.878906 114.632812 340.726562 114.25 340.574219 C 113.65625 340.15625 113.078125 339.734375 112.492188 339.308594 C 112.933594 339.492188 113.375 339.671875 113.816406 339.84375 Z M 117.078125 342.234375 C 117.707031 342.683594 118.351562 343.117188 118.992188 343.550781 C 118.753906 343.464844 118.515625 343.375 118.285156 343.289062 C 117.570312 342.828125 116.855469 342.359375 116.15625 341.890625 C 116.464844 342.003906 116.769531 342.128906 117.078125 342.242188 Z M 120.921875 344.8125 C 121.695312 345.304688 122.484375 345.796875 123.269531 346.273438 C 123.21875 346.25 123.160156 346.238281 123.113281 346.214844 C 122.214844 345.703125 121.335938 345.183594 120.46875 344.65625 C 120.621094 344.714844 120.769531 344.765625 120.921875 344.8125 Z M 125.632812 346.410156 C 125.71875 346.441406 125.796875 346.46875 125.886719 346.488281 C 126.507812 346.886719 127.128906 347.277344 127.761719 347.660156 C 127.046875 347.25 126.332031 346.835938 125.632812 346.410156 Z M 123.769531 345.246094 C 123.089844 344.8125 122.417969 344.375 121.761719 343.925781 C 121.96875 344 122.171875 344.0625 122.382812 344.128906 C 122.988281 344.5625 123.601562 344.980469 124.222656 345.398438 C 124.070312 345.347656 123.921875 345.296875 123.769531 345.246094 Z M 120.148438 342.8125 C 119.566406 342.402344 118.988281 341.984375 118.417969 341.554688 C 118.734375 341.671875 119.050781 341.78125 119.371094 341.894531 C 119.890625 342.292969 120.410156 342.691406 120.9375 343.082031 C 120.675781 342.988281 120.410156 342.90625 120.148438 342.8125 Z M 116.980469 340.480469 C 116.496094 340.105469 116.011719 339.730469 115.527344 339.347656 C 115.917969 339.492188 116.308594 339.628906 116.695312 339.765625 C 117.152344 340.140625 117.605469 340.507812 118.070312 340.882812 C 117.699219 340.753906 117.339844 340.617188 116.980469 340.480469 Z M 114.242188 338.3125 C 113.851562 337.988281 113.453125 337.664062 113.070312 337.339844 C 113.53125 337.511719 113.988281 337.675781 114.449219 337.851562 C 114.8125 338.167969 115.171875 338.480469 115.535156 338.796875 C 115.101562 338.636719 114.667969 338.488281 114.242188 338.320312 Z M 111.757812 336.203125 C 111.417969 335.90625 111.078125 335.605469 110.746094 335.308594 C 111.273438 335.511719 111.792969 335.71875 112.320312 335.914062 C 112.636719 336.210938 112.957031 336.5 113.273438 336.796875 C 112.765625 336.601562 112.261719 336.40625 111.757812 336.210938 Z M 109.503906 334.175781 C 109.207031 333.898438 108.917969 333.632812 108.628906 333.359375 C 109.207031 333.589844 109.777344 333.8125 110.355469 334.03125 C 110.636719 334.304688 110.917969 334.578125 111.199219 334.847656 C 110.636719 334.628906 110.066406 334.398438 109.503906 334.167969 Z M 111.566406 334.476562 C 112.089844 334.664062 112.617188 334.859375 113.136719 335.046875 C 113.417969 335.328125 113.699219 335.613281 113.988281 335.886719 C 113.476562 335.707031 112.96875 335.511719 112.464844 335.324219 C 112.167969 335.039062 111.863281 334.757812 111.566406 334.476562 Z M 114.285156 335.4375 C 114.761719 335.597656 115.238281 335.761719 115.722656 335.914062 C 116.003906 336.203125 116.292969 336.492188 116.574219 336.773438 C 116.113281 336.621094 115.648438 336.464844 115.1875 336.304688 C 114.882812 336.015625 114.585938 335.726562 114.285156 335.4375 Z M 116.804688 336.261719 C 117.246094 336.398438 117.6875 336.535156 118.128906 336.667969 C 118.410156 336.960938 118.699219 337.257812 118.988281 337.554688 C 118.5625 337.425781 118.132812 337.292969 117.714844 337.15625 C 117.414062 336.859375 117.109375 336.566406 116.804688 336.261719 Z M 123.480469 338.148438 C 132.515625 340.414062 141.691406 341.5625 150.929688 341.5625 C 152.316406 341.5625 153.703125 341.535156 155.089844 341.484375 C 198.957031 339.859375 215.058594 333.097656 232.109375 325.933594 C 243.984375 320.941406 256.257812 315.78125 278.605469 311.730469 C 296.136719 308.550781 313.566406 296.488281 328.253906 277.503906 C 314.746094 295.1875 298.109375 307.816406 280.691406 311.859375 C 260.894531 316.460938 248.878906 321.570312 237.265625 326.515625 C 218.417969 334.542969 202.136719 341.46875 158.082031 342.964844 C 146.761719 343.347656 135.449219 342.027344 124.367188 339.109375 C 124.066406 338.789062 123.769531 338.464844 123.472656 338.148438 Z M 278.519531 311.21875 C 256.113281 315.285156 243.808594 320.457031 231.90625 325.457031 C 214.910156 332.597656 198.851562 339.347656 155.070312 340.972656 C 143.546875 341.398438 132.8125 340.0625 122.917969 337.53125 C 122.597656 337.179688 122.289062 336.824219 121.976562 336.464844 C 130.011719 338.429688 138.578125 339.578125 147.671875 339.578125 C 149.125 339.578125 150.589844 339.546875 152.070312 339.492188 C 195.832031 337.734375 211.109375 331.335938 227.28125 324.558594 C 239.214844 319.5625 251.554688 314.390625 276.394531 311.09375 C 294.539062 308.683594 312.808594 296.503906 328.273438 276.625 C 313.574219 295.832031 296.09375 308.03125 278.511719 311.226562 Z M 122 337.289062 C 121.59375 337.179688 121.183594 337.070312 120.777344 336.960938 C 120.460938 336.617188 120.144531 336.261719 119.824219 335.914062 C 120.25 336.03125 120.671875 336.144531 121.097656 336.253906 C 121.390625 336.601562 121.6875 336.949219 121.992188 337.292969 Z M 119.808594 336.6875 C 119.378906 336.566406 118.945312 336.433594 118.511719 336.3125 C 118.191406 335.972656 117.875 335.632812 117.558594 335.292969 C 117.996094 335.421875 118.445312 335.539062 118.894531 335.664062 C 119.195312 336.007812 119.5 336.347656 119.808594 336.6875 Z M 117.5 336.007812 C 117.035156 335.863281 116.566406 335.71875 116.105469 335.566406 C 115.78125 335.234375 115.453125 334.902344 115.136719 334.5625 C 115.605469 334.714844 116.089844 334.851562 116.566406 334.996094 C 116.878906 335.335938 117.1875 335.675781 117.5 336.007812 Z M 115.035156 335.214844 C 114.539062 335.046875 114.039062 334.875 113.539062 334.703125 C 113.214844 334.375 112.882812 334.042969 112.566406 333.710938 C 113.078125 333.886719 113.589844 334.058594 114.109375 334.226562 C 114.421875 334.558594 114.726562 334.882812 115.042969 335.207031 Z M 112.398438 334.304688 C 111.851562 334.109375 111.308594 333.90625 110.765625 333.703125 C 110.433594 333.378906 110.109375 333.054688 109.785156 332.730469 C 110.347656 332.9375 110.902344 333.140625 111.46875 333.34375 C 111.777344 333.667969 112.089844 333.984375 112.398438 334.304688 Z M 109.546875 333.242188 C 108.9375 333.003906 108.339844 332.765625 107.738281 332.519531 C 107.414062 332.203125 107.082031 331.882812 106.757812 331.566406 C 107.371094 331.8125 107.992188 332.058594 108.613281 332.296875 C 108.925781 332.613281 109.234375 332.925781 109.546875 333.234375 Z M 105.804688 330.621094 C 105.5 330.316406 105.203125 330.011719 104.902344 329.710938 C 105.550781 329.976562 106.207031 330.238281 106.871094 330.488281 C 107.160156 330.792969 107.449219 331.097656 107.738281 331.398438 C 107.089844 331.148438 106.441406 330.886719 105.804688 330.621094 Z M 104 328.769531 C 103.722656 328.480469 103.449219 328.191406 103.175781 327.898438 C 103.859375 328.179688 104.554688 328.453125 105.253906 328.71875 C 105.523438 329.015625 105.789062 329.3125 106.058594 329.601562 C 105.363281 329.328125 104.683594 329.050781 104 328.761719 Z M 102.308594 326.972656 C 102.046875 326.691406 101.792969 326.414062 101.535156 326.132812 C 102.257812 326.429688 102.980469 326.71875 103.714844 327 C 103.96875 327.289062 104.222656 327.570312 104.476562 327.851562 C 103.746094 327.566406 103.023438 327.269531 102.308594 326.964844 Z M 100.695312 325.210938 C 100.445312 324.929688 100.191406 324.640625 99.9375 324.355469 C 100.695312 324.667969 101.449219 324.972656 102.207031 325.265625 C 102.460938 325.5625 102.703125 325.851562 102.957031 326.140625 C 102.199219 325.839844 101.441406 325.527344 100.695312 325.210938 Z M 99.144531 323.445312 C 98.933594 323.207031 98.730469 322.96875 98.523438 322.730469 C 99.304688 323.058594 100.082031 323.367188 100.871094 323.664062 C 101.078125 323.917969 101.289062 324.167969 101.5 324.414062 C 100.710938 324.105469 99.929688 323.78125 99.144531 323.445312 Z M 97.757812 321.828125 C 90.648438 313.457031 84.117188 304.210938 77.269531 294.523438 C 66.941406 279.902344 56.257812 264.792969 41.875 249.976562 C 30.511719 238.273438 21.613281 216.140625 17.460938 189.253906 C 17.359375 188.570312 17.257812 187.882812 17.164062 187.1875 C 16.738281 184.164062 16.398438 181.15625 16.125 178.179688 C 16.441406 181.214844 16.832031 184.269531 17.308594 187.355469 C 17.410156 188.042969 17.519531 188.734375 17.632812 189.421875 C 22.214844 216.660156 31.554688 238.691406 43.246094 249.867188 C 59.839844 265.722656 71.195312 282.195312 82.175781 298.121094 C 88.1875 306.839844 93.941406 315.183594 100.167969 322.8125 C 99.359375 322.492188 98.550781 322.160156 97.742188 321.816406 Z M 14.664062 186.972656 C 14.730469 187.671875 14.800781 188.367188 14.875 189.066406 C 17.855469 215.527344 25.449219 237.78125 36.25 251.730469 C 43.132812 260.632812 49.519531 269.515625 55.695312 278.113281 C 64.949219 290.992188 73.761719 303.273438 83.28125 314.257812 C 81.792969 313.335938 80.320312 312.367188 78.84375 311.355469 C 67.496094 298.300781 57.117188 283.480469 46.179688 267.863281 C 42.53125 262.652344 38.761719 257.265625 34.910156 251.890625 C 24.429688 237.261719 17.25 214.898438 14.691406 188.921875 C 14.628906 188.230469 14.570312 187.527344 14.511719 186.828125 C 14.179688 182.898438 13.976562 179.011719 13.898438 175.167969 C 14.019531 179.070312 14.273438 183.015625 14.65625 186.972656 Z M 84.4375 315.582031 C 84.558594 315.726562 84.691406 315.863281 84.8125 316.007812 C 83.359375 315.117188 81.921875 314.1875 80.484375 313.21875 C 80.390625 313.117188 80.304688 313.007812 80.210938 312.90625 C 81.613281 313.839844 83.011719 314.726562 84.429688 315.582031 Z M 85.996094 317.335938 C 86.183594 317.546875 86.371094 317.746094 86.558594 317.957031 C 85.136719 317.097656 83.75 316.222656 82.390625 315.328125 C 82.226562 315.148438 82.058594 314.964844 81.902344 314.785156 C 83.257812 315.675781 84.632812 316.519531 86.003906 317.335938 Z M 80.746094 314.230469 C 79.011719 313.050781 77.34375 311.847656 75.726562 310.632812 C 75.601562 310.503906 75.488281 310.367188 75.371094 310.226562 C 76.996094 311.441406 78.636719 312.597656 80.289062 313.710938 C 80.441406 313.882812 80.601562 314.054688 80.753906 314.230469 Z M 73.335938 308.789062 C 70.523438 306.582031 67.902344 304.339844 65.476562 302.128906 C 65.429688 302.074219 65.386719 302.023438 65.335938 301.964844 C 67.867188 304.246094 70.421875 306.40625 73.015625 308.429688 C 73.125 308.550781 73.226562 308.667969 73.335938 308.789062 Z M 54.914062 296.777344 C 55.015625 296.902344 55.117188 297.023438 55.21875 297.144531 C 51.980469 293.585938 48.898438 289.90625 45.972656 286.117188 C 48.808594 289.785156 51.792969 293.339844 54.914062 296.769531 Z M 45.703125 285.761719 C 44.996094 284.835938 44.289062 283.90625 43.59375 282.964844 C 44.289062 283.90625 44.988281 284.835938 45.703125 285.761719 Z M 76.75 316.929688 C 78.800781 318.5 80.875 320.007812 82.976562 321.460938 C 83.28125 321.742188 83.585938 322.03125 83.886719 322.3125 C 81.792969 320.875 79.71875 319.378906 77.675781 317.820312 C 77.363281 317.523438 77.0625 317.226562 76.75 316.929688 Z M 85.398438 323.09375 C 87.050781 324.183594 88.714844 325.246094 90.394531 326.257812 C 90.726562 326.558594 91.066406 326.847656 91.398438 327.144531 C 89.722656 326.132812 88.054688 325.085938 86.402344 324.003906 C 86.0625 323.699219 85.730469 323.398438 85.390625 323.09375 Z M 93.617188 329.066406 C 94.050781 329.433594 94.484375 329.804688 94.917969 330.164062 C 93.4375 329.3125 91.957031 328.4375 90.496094 327.527344 C 90.027344 327.136719 89.558594 326.742188 89.097656 326.34375 C 90.589844 327.277344 92.101562 328.191406 93.617188 329.066406 Z M 96.578125 330.726562 C 97.417969 331.191406 98.261719 331.632812 99.109375 332.070312 C 99.5625 332.449219 100.019531 332.824219 100.472656 333.191406 C 99.65625 332.773438 98.847656 332.339844 98.039062 331.898438 C 97.546875 331.507812 97.0625 331.117188 96.578125 330.726562 Z M 101.117188 333.097656 C 101.925781 333.503906 102.742188 333.90625 103.550781 334.296875 C 104.011719 334.671875 104.476562 335.046875 104.9375 335.417969 C 104.15625 335.046875 103.382812 334.671875 102.609375 334.289062 C 102.105469 333.898438 101.605469 333.503906 101.109375 333.097656 Z M 105.566406 335.242188 C 106.203125 335.53125 106.835938 335.8125 107.480469 336.09375 C 107.949219 336.476562 108.417969 336.855469 108.894531 337.238281 C 108.273438 336.960938 107.660156 336.671875 107.039062 336.390625 C 106.546875 336.007812 106.058594 335.625 105.566406 335.242188 Z M 110.550781 338.523438 C 111.078125 338.925781 111.613281 339.324219 112.144531 339.722656 C 111.664062 339.519531 111.183594 339.316406 110.703125 339.109375 C 110.101562 338.679688 109.503906 338.25 108.917969 337.816406 C 109.460938 338.054688 110.007812 338.296875 110.550781 338.53125 Z M 113.972656 341.035156 C 114.609375 341.484375 115.257812 341.933594 115.910156 342.367188 C 115.585938 342.234375 115.257812 342.113281 114.933594 341.984375 C 114.210938 341.511719 113.496094 341.035156 112.789062 340.550781 C 113.1875 340.71875 113.582031 340.878906 113.980469 341.035156 Z M 117.996094 343.746094 C 118.777344 344.25 119.570312 344.742188 120.375 345.226562 C 120.25 345.183594 120.128906 345.140625 120.003906 345.089844 C 119.101562 344.570312 118.207031 344.035156 117.324219 343.484375 C 117.550781 343.570312 117.773438 343.652344 117.996094 343.738281 Z M 127.871094 347.125 C 127.929688 347.148438 127.996094 347.160156 128.050781 347.175781 C 128.523438 347.480469 129 347.777344 129.476562 348.070312 C 128.933594 347.761719 128.398438 347.445312 127.863281 347.117188 Z M 126.125 346.035156 C 125.445312 345.601562 124.78125 345.160156 124.117188 344.714844 C 124.304688 344.769531 124.492188 344.835938 124.679688 344.894531 C 125.269531 345.320312 125.878906 345.730469 126.484375 346.144531 C 126.363281 346.105469 126.246094 346.070312 126.125 346.027344 Z M 122.621094 343.671875 C 122.058594 343.269531 121.5 342.863281 120.945312 342.453125 C 121.21875 342.546875 121.492188 342.632812 121.773438 342.726562 C 122.289062 343.132812 122.816406 343.527344 123.34375 343.917969 C 123.105469 343.839844 122.867188 343.753906 122.628906 343.671875 Z M 119.617188 341.441406 C 119.132812 341.066406 118.65625 340.691406 118.179688 340.308594 C 118.53125 340.429688 118.878906 340.546875 119.234375 340.660156 C 119.671875 341.035156 120.121094 341.398438 120.574219 341.765625 C 120.257812 341.65625 119.941406 341.550781 119.621094 341.441406 Z M 116.984375 339.339844 C 116.597656 339.015625 116.207031 338.679688 115.816406 338.347656 C 116.234375 338.492188 116.652344 338.644531 117.074219 338.789062 C 117.425781 339.109375 117.789062 339.425781 118.148438 339.742188 C 117.757812 339.605469 117.367188 339.476562 116.980469 339.339844 Z M 114.609375 337.300781 C 114.269531 337 113.929688 336.695312 113.589844 336.390625 C 114.066406 336.566406 114.542969 336.746094 115.019531 336.90625 C 115.339844 337.207031 115.664062 337.503906 115.980469 337.808594 C 115.519531 337.648438 115.066406 337.476562 114.609375 337.300781 Z M 116.21875 337.300781 C 116.652344 337.445312 117.085938 337.597656 117.519531 337.734375 C 117.839844 338.046875 118.15625 338.347656 118.480469 338.652344 C 118.0625 338.515625 117.652344 338.371094 117.230469 338.226562 C 116.890625 337.914062 116.550781 337.613281 116.214844 337.300781 Z M 118.667969 338.097656 C 119.066406 338.21875 119.464844 338.34375 119.867188 338.464844 C 120.1875 338.777344 120.503906 339.09375 120.820312 339.398438 C 120.4375 339.28125 120.0625 339.164062 119.679688 339.042969 C 119.339844 338.730469 119 338.414062 118.667969 338.097656 Z M 120.964844 338.796875 C 121.335938 338.90625 121.703125 339 122.070312 339.109375 C 122.390625 339.425781 122.707031 339.75 123.023438 340.0625 C 122.671875 339.960938 122.316406 339.859375 121.96875 339.757812 C 121.628906 339.441406 121.296875 339.121094 120.964844 338.796875 Z M 123.113281 339.398438 C 123.464844 339.492188 123.820312 339.589844 124.171875 339.6875 C 124.484375 340.011719 124.800781 340.335938 125.121094 340.660156 C 124.78125 340.566406 124.449219 340.464844 124.109375 340.371094 C 123.777344 340.046875 123.445312 339.722656 123.113281 339.398438 Z M 125.148438 339.929688 C 134.675781 342.34375 144.355469 343.570312 154.113281 343.570312 C 155.445312 343.570312 156.773438 343.550781 158.101562 343.507812 C 202.253906 342.011719 218.578125 335.0625 237.476562 327.015625 C 249.070312 322.082031 261.050781 316.976562 280.816406 312.386719 C 301.851562 307.503906 321.753906 290.183594 336.429688 266.574219 C 322.417969 289.539062 303.417969 306.660156 282.882812 312.523438 C 265.796875 317.410156 253.851562 322.609375 243.3125 327.203125 C 223.09375 336.007812 205.632812 343.617188 161.105469 344.988281 C 149.347656 345.347656 137.617188 343.960938 126.144531 340.941406 C 125.8125 340.609375 125.480469 340.277344 125.148438 339.945312 Z M 276.332031 310.589844 C 251.421875 313.898438 239.050781 319.078125 227.082031 324.089844 C 210.949219 330.84375 195.714844 337.230469 152.050781 338.976562 C 141.089844 339.417969 130.863281 338.183594 121.398438 335.800781 C 121.101562 335.445312 120.808594 335.089844 120.519531 334.738281 C 128.050781 336.542969 136.070312 337.597656 144.550781 337.597656 C 146.03125 337.597656 147.535156 337.570312 149.050781 337.503906 C 192.863281 335.613281 208.140625 329.175781 222.917969 322.949219 C 235.285156 317.742188 246.964844 312.8125 274.191406 310.464844 C 291.953125 308.933594 310.765625 297.210938 326.492188 278.054688 C 311.40625 296.800781 293.804688 308.269531 276.332031 310.589844 Z M 120.527344 335.582031 C 120.085938 335.46875 119.644531 335.351562 119.203125 335.230469 C 118.90625 334.890625 118.609375 334.542969 118.316406 334.195312 C 118.761719 334.3125 119.21875 334.425781 119.671875 334.542969 C 119.953125 334.894531 120.238281 335.242188 120.527344 335.589844 Z M 118.277344 334.96875 C 117.808594 334.839844 117.339844 334.703125 116.878906 334.5625 C 116.574219 334.230469 116.277344 333.898438 115.980469 333.558594 C 116.457031 333.699219 116.933594 333.820312 117.417969 333.949219 C 117.707031 334.289062 117.988281 334.628906 118.285156 334.96875 Z M 115.910156 334.269531 C 115.402344 334.117188 114.90625 333.957031 114.40625 333.796875 C 114.105469 333.472656 113.800781 333.140625 113.496094 332.808594 C 114.011719 332.96875 114.523438 333.125 115.035156 333.277344 C 115.324219 333.609375 115.613281 333.941406 115.910156 334.273438 Z M 113.382812 333.457031 C 112.839844 333.277344 112.304688 333.097656 111.769531 332.910156 C 111.46875 332.59375 111.164062 332.265625 110.859375 331.941406 C 111.410156 332.128906 111.957031 332.316406 112.515625 332.5 C 112.804688 332.824219 113.09375 333.140625 113.382812 333.457031 Z M 110.671875 332.519531 C 110.082031 332.308594 109.496094 332.085938 108.917969 331.871094 C 108.613281 331.558594 108.308594 331.242188 108.007812 330.929688 C 108.605469 331.15625 109.199219 331.378906 109.804688 331.589844 C 110.09375 331.898438 110.382812 332.214844 110.671875 332.527344 Z M 107.191406 330.0625 C 106.910156 329.761719 106.621094 329.457031 106.339844 329.152344 C 106.972656 329.390625 107.601562 329.628906 108.246094 329.855469 C 108.511719 330.15625 108.789062 330.460938 109.054688 330.765625 C 108.425781 330.539062 107.804688 330.300781 107.183594 330.070312 Z M 105.566406 328.300781 C 105.296875 328.003906 105.039062 327.710938 104.769531 327.414062 C 105.433594 327.660156 106.101562 327.910156 106.773438 328.140625 C 107.023438 328.4375 107.285156 328.742188 107.539062 329.03125 C 106.878906 328.792969 106.222656 328.546875 105.566406 328.292969 Z M 104.035156 326.582031 C 103.765625 326.277344 103.5 325.96875 103.230469 325.65625 C 103.925781 325.917969 104.621094 326.171875 105.3125 326.410156 C 105.574219 326.71875 105.824219 327.03125 106.085938 327.339844 C 105.398438 327.09375 104.714844 326.84375 104.035156 326.582031 Z M 102.53125 324.839844 C 102.308594 324.574219 102.082031 324.308594 101.859375 324.046875 C 102.574219 324.3125 103.289062 324.566406 104.003906 324.8125 C 104.230469 325.085938 104.445312 325.363281 104.667969 325.636719 C 103.953125 325.375 103.238281 325.117188 102.523438 324.839844 Z M 101.1875 323.238281 C 94.730469 315.429688 88.808594 306.839844 82.617188 297.859375 C 71.621094 281.910156 60.253906 265.421875 43.617188 249.527344 C 32 238.425781 22.71875 216.496094 18.152344 189.371094 C 18.039062 188.683594 17.9375 188 17.828125 187.3125 C 17.359375 184.292969 16.976562 181.292969 16.664062 178.332031 C 17.019531 181.367188 17.460938 184.429688 17.972656 187.492188 C 18.089844 188.179688 18.203125 188.863281 18.328125 189.550781 C 23.316406 217.007812 33.046875 238.84375 45.003906 249.449219 C 63.777344 266.09375 75.566406 283.746094 86.980469 300.824219 C 92.453125 309.015625 97.699219 316.867188 103.398438 324.0625 C 102.660156 323.800781 101.917969 323.527344 101.179688 323.246094 Z M 14.007812 186.871094 C 14.066406 187.570312 14.121094 188.273438 14.1875 188.972656 C 16.757812 215.042969 23.96875 237.492188 34.5 252.195312 C 38.34375 257.5625 42.121094 262.949219 45.761719 268.15625 C 56.222656 283.097656 66.269531 297.433594 77.226562 310.214844 C 75.398438 308.914062 73.585938 307.546875 71.789062 306.109375 C 58.121094 290.046875 46.015625 271.75 33.625 253.03125 L 33.1875 252.359375 C 22.980469 236.9375 16.167969 214.371094 14.015625 188.828125 C 13.957031 188.128906 13.90625 187.425781 13.863281 186.726562 C 13.636719 183.542969 13.5 180.378906 13.445312 177.234375 C 13.542969 180.414062 13.726562 183.628906 14 186.863281 Z M 78.605469 311.824219 C 78.679688 311.910156 78.757812 311.992188 78.832031 312.078125 C 77.074219 310.847656 75.34375 309.578125 73.617188 308.234375 C 73.585938 308.199219 73.550781 308.160156 73.523438 308.125 C 75.203125 309.410156 76.902344 310.648438 78.605469 311.824219 Z M 71.246094 306.355469 C 71.160156 306.285156 71.074219 306.210938 70.988281 306.140625 C 71.066406 306.203125 71.144531 306.261719 71.226562 306.328125 C 71.230469 306.335938 71.238281 306.347656 71.246094 306.355469 Z M 60.527344 303.488281 C 60.707031 303.691406 60.878906 303.898438 61.0625 304.101562 C 56.871094 299.90625 52.898438 295.507812 49.171875 290.925781 C 52.769531 295.320312 56.5625 299.515625 60.527344 303.496094 Z M 81.113281 321.011719 C 82.90625 322.292969 84.710938 323.527344 86.53125 324.71875 C 86.957031 325.09375 87.382812 325.460938 87.804688 325.839844 C 86.003906 324.675781 84.226562 323.46875 82.464844 322.226562 C 82.007812 321.828125 81.5625 321.425781 81.113281 321.019531 Z M 90.640625 328.242188 C 91.15625 328.667969 91.675781 329.097656 92.1875 329.515625 C 90.714844 328.621094 89.253906 327.703125 87.808594 326.753906 C 87.238281 326.285156 86.667969 325.816406 86.105469 325.347656 C 87.609375 326.34375 89.117188 327.304688 90.640625 328.242188 Z M 93.371094 329.882812 C 94.671875 330.640625 95.972656 331.386719 97.289062 332.109375 C 97.816406 332.527344 98.34375 332.945312 98.871094 333.351562 C 97.613281 332.671875 96.363281 331.972656 95.128906 331.253906 C 94.542969 330.800781 93.957031 330.34375 93.378906 329.882812 Z M 100.453125 333.792969 C 101.136719 334.144531 101.824219 334.484375 102.515625 334.832031 C 103.058594 335.257812 103.609375 335.667969 104.15625 336.089844 C 103.515625 335.769531 102.878906 335.453125 102.242188 335.128906 C 101.644531 334.6875 101.050781 334.246094 100.457031 333.792969 Z M 104.699219 335.894531 C 105.386719 336.21875 106.070312 336.542969 106.765625 336.859375 C 107.300781 337.265625 107.832031 337.671875 108.367188 338.074219 C 107.746094 337.792969 107.125 337.519531 106.511719 337.230469 C 105.90625 336.789062 105.304688 336.347656 104.707031 335.902344 Z M 110.398438 339.546875 C 111.039062 340.011719 111.691406 340.457031 112.347656 340.90625 C 111.894531 340.710938 111.4375 340.523438 110.984375 340.328125 C 110.246094 339.84375 109.523438 339.351562 108.800781 338.855469 C 109.328125 339.09375 109.863281 339.324219 110.398438 339.554688 Z M 114.632812 342.421875 C 115.425781 342.945312 116.234375 343.449219 117.042969 343.949219 C 116.8125 343.855469 116.574219 343.765625 116.34375 343.664062 C 115.425781 343.125 114.523438 342.574219 113.628906 342.011719 C 113.960938 342.148438 114.296875 342.285156 114.632812 342.417969 Z M 119.730469 345.542969 C 120.164062 345.796875 120.605469 346.042969 121.054688 346.289062 C 120.539062 346.011719 120.019531 345.738281 119.515625 345.457031 C 119.585938 345.484375 119.660156 345.515625 119.738281 345.542969 Z M 129.929688 347.734375 C 129.980469 347.746094 130.023438 347.761719 130.074219 347.777344 C 130.464844 348.027344 130.855469 348.273438 131.246094 348.519531 C 130.804688 348.261719 130.363281 348 129.929688 347.734375 Z M 128.304688 346.714844 C 127.632812 346.28125 126.976562 345.847656 126.320312 345.398438 C 126.476562 345.449219 126.644531 345.492188 126.804688 345.542969 C 127.402344 345.976562 128.007812 346.394531 128.625 346.816406 C 128.515625 346.785156 128.414062 346.75 128.304688 346.714844 Z M 124.917969 344.417969 C 124.367188 344.027344 123.828125 343.621094 123.292969 343.21875 C 123.539062 343.296875 123.785156 343.371094 124.027344 343.441406 C 124.527344 343.832031 125.027344 344.222656 125.539062 344.605469 C 125.328125 344.539062 125.125 344.476562 124.917969 344.410156 Z M 122.058594 342.273438 C 121.566406 341.890625 121.082031 341.507812 120.605469 341.117188 C 120.9375 341.222656 121.261719 341.339844 121.59375 341.441406 C 122.027344 341.808594 122.46875 342.179688 122.910156 342.539062 C 122.628906 342.453125 122.347656 342.367188 122.0625 342.273438 Z M 119.5 340.199219 C 119.109375 339.875 118.726562 339.542969 118.351562 339.207031 C 118.734375 339.339844 119.117188 339.46875 119.507812 339.589844 C 119.867188 339.917969 120.230469 340.242188 120.589844 340.566406 C 120.230469 340.453125 119.867188 340.320312 119.507812 340.199219 Z M 120.707031 339.96875 C 121.058594 340.074219 121.40625 340.183594 121.761719 340.285156 C 122.113281 340.617188 122.46875 340.941406 122.828125 341.269531 C 122.496094 341.167969 122.171875 341.066406 121.839844 340.957031 C 121.457031 340.632812 121.082031 340.300781 120.707031 339.960938 Z M 122.921875 340.640625 C 123.25 340.734375 123.574219 340.820312 123.890625 340.90625 C 124.238281 341.238281 124.59375 341.570312 124.953125 341.902344 C 124.648438 341.816406 124.347656 341.738281 124.050781 341.644531 C 123.667969 341.3125 123.292969 340.980469 122.921875 340.640625 Z M 124.996094 341.210938 C 125.308594 341.296875 125.617188 341.382812 125.929688 341.46875 C 126.277344 341.808594 126.628906 342.140625 126.984375 342.472656 C 126.695312 342.394531 126.398438 342.308594 126.109375 342.226562 C 125.734375 341.894531 125.367188 341.554688 124.996094 341.210938 Z M 126.96875 341.722656 C 136.945312 344.257812 147.085938 345.542969 157.324219 345.542969 C 158.585938 345.542969 159.851562 345.523438 161.105469 345.484375 C 205.734375 344.113281 223.238281 336.492188 243.507812 327.660156 C 254.03125 323.070312 265.957031 317.878906 283.011719 313 C 301.546875 307.707031 318.839844 293.304688 332.378906 273.71875 C 319.101562 293.296875 302.472656 307.1875 285.050781 313.144531 C 270.8125 318.015625 259.851562 322.957031 250.179688 327.3125 C 227.367188 337.589844 209.355469 345.71875 164.105469 346.960938 C 151.960938 347.292969 139.871094 345.847656 128.066406 342.75 C 127.691406 342.410156 127.332031 342.0625 126.960938 341.714844 Z M 274.132812 309.925781 C 246.828125 312.28125 235.113281 317.214844 222.703125 322.441406 C 207.964844 328.648438 192.730469 335.070312 149.015625 336.957031 C 138.664062 337.402344 128.960938 336.277344 119.96875 334.058594 C 119.6875 333.710938 119.414062 333.359375 119.136719 333.003906 C 126.160156 334.636719 133.601562 335.582031 141.445312 335.582031 C 142.953125 335.582031 144.484375 335.546875 146.023438 335.472656 C 190.03125 333.4375 204.722656 327.160156 218.933594 321.085938 C 231.046875 315.90625 242.488281 311.015625 271.972656 309.792969 C 288.667969 309.101562 306.480469 299.269531 321.96875 282.460938 C 307.234375 298.675781 290.242188 308.523438 274.140625 309.917969 Z M 119.132812 333.847656 C 118.65625 333.726562 118.183594 333.601562 117.714844 333.480469 C 117.433594 333.140625 117.152344 332.800781 116.878906 332.460938 C 117.355469 332.585938 117.839844 332.691406 118.324219 332.808594 C 118.589844 333.15625 118.855469 333.503906 119.132812 333.847656 Z M 116.835938 333.234375 C 116.335938 333.097656 115.832031 332.953125 115.339844 332.800781 C 115.058594 332.46875 114.769531 332.136719 114.488281 331.804688 C 114.992188 331.949219 115.503906 332.085938 116.019531 332.222656 C 116.285156 332.5625 116.558594 332.894531 116.835938 333.234375 Z M 114.40625 332.527344 C 113.871094 332.359375 113.339844 332.195312 112.8125 332.027344 C 112.523438 331.703125 112.238281 331.378906 111.949219 331.054688 C 112.492188 331.21875 113.042969 331.394531 113.589844 331.550781 C 113.859375 331.878906 114.132812 332.203125 114.40625 332.527344 Z M 111.820312 331.703125 C 111.242188 331.507812 110.671875 331.3125 110.101562 331.117188 C 109.8125 330.808594 109.53125 330.488281 109.25 330.171875 C 109.835938 330.375 110.417969 330.578125 111.011719 330.765625 C 111.28125 331.082031 111.554688 331.394531 111.828125 331.703125 Z M 108.542969 329.378906 C 108.273438 329.066406 108 328.761719 107.734375 328.453125 C 108.347656 328.664062 108.960938 328.871094 109.582031 329.066406 C 109.84375 329.378906 110.09375 329.6875 110.355469 330 C 109.746094 329.796875 109.140625 329.59375 108.542969 329.378906 Z M 107.066406 327.671875 C 106.800781 327.355469 106.527344 327.039062 106.257812 326.710938 C 106.902344 326.929688 107.539062 327.136719 108.179688 327.332031 C 108.441406 327.660156 108.699219 327.984375 108.96875 328.308594 C 108.332031 328.097656 107.695312 327.890625 107.066406 327.664062 Z M 105.617188 325.9375 C 105.386719 325.664062 105.160156 325.382812 104.929688 325.101562 C 105.59375 325.316406 106.25 325.527344 106.917969 325.730469 C 107.140625 326.019531 107.371094 326.308594 107.59375 326.597656 C 106.929688 326.378906 106.273438 326.15625 105.609375 325.933594 Z M 104.316406 324.335938 C 98.421875 316.980469 93.039062 308.921875 87.414062 300.496094 C 76.519531 284.195312 64.175781 265.710938 45.351562 249.023438 C 33.472656 238.5 23.816406 216.769531 18.839844 189.429688 C 18.714844 188.742188 18.601562 188.0625 18.484375 187.378906 C 17.996094 184.453125 17.574219 181.535156 17.230469 178.636719 C 17.617188 181.589844 18.089844 184.566406 18.636719 187.558594 C 18.761719 188.242188 18.890625 188.921875 19.019531 189.609375 C 24.429688 217.273438 34.535156 238.902344 46.757812 248.949219 C 67.664062 266.144531 80.238281 285.691406 91.335938 302.941406 C 96.332031 310.710938 101.128906 318.167969 106.367188 325.007812 C 105.679688 324.789062 105.003906 324.566406 104.316406 324.335938 Z M 13.34375 186.769531 C 13.394531 187.472656 13.445312 188.171875 13.496094 188.878906 C 15.652344 214.507812 22.496094 237.160156 32.753906 252.65625 L 33.191406 253.328125 C 45.175781 271.4375 56.660156 288.789062 69.382812 304.152344 C 67.15625 302.289062 64.953125 300.324219 62.78125 298.265625 C 62.101562 297.621094 61.445312 296.964844 60.785156 296.316406 C 50.03125 282.570312 40.511719 267.710938 31.445312 252.851562 C 21.511719 236.578125 15.074219 213.816406 13.320312 188.757812 C 13.277344 188.054688 13.234375 187.355469 13.199219 186.648438 C 13.015625 183.441406 12.929688 180.253906 12.917969 177.082031 C 12.972656 180.289062 13.105469 183.519531 13.335938 186.769531 Z M 62.730469 306.484375 C 63.929688 307.648438 65.148438 308.785156 66.378906 309.902344 C 66.710938 310.25 67.042969 310.597656 67.375 310.941406 C 65.914062 309.621094 64.464844 308.269531 63.035156 306.890625 C 58.972656 302.945312 55.109375 298.800781 51.460938 294.488281 C 55.023438 298.65625 58.777344 302.664062 62.730469 306.492188 Z M 70.625 313.652344 C 74.105469 316.621094 77.683594 319.417969 81.335938 322.039062 C 81.808594 322.457031 82.269531 322.875 82.738281 323.289062 C 79.046875 320.667969 75.429688 317.878906 71.902344 314.910156 C 71.476562 314.488281 71.050781 314.078125 70.625 313.652344 Z M 86.523438 326.523438 C 87.125 327.023438 87.722656 327.515625 88.332031 328.003906 C 85.121094 325.910156 81.972656 323.691406 78.890625 321.351562 C 78.304688 320.847656 77.726562 320.328125 77.148438 319.8125 C 80.210938 322.175781 83.339844 324.414062 86.523438 326.523438 Z M 91.667969 329.796875 C 92.882812 330.535156 94.09375 331.261719 95.324219 331.964844 C 95.980469 332.46875 96.636719 332.96875 97.292969 333.453125 C 96.175781 332.824219 95.070312 332.179688 93.964844 331.523438 C 93.191406 330.953125 92.425781 330.375 91.667969 329.796875 Z M 98.277344 333.609375 C 99.332031 334.1875 100.394531 334.746094 101.460938 335.292969 C 102.105469 335.769531 102.753906 336.246094 103.40625 336.710938 C 102.4375 336.21875 101.46875 335.726562 100.507812 335.214844 C 99.757812 334.6875 99.015625 334.152344 98.277344 333.609375 Z M 104.886719 337.003906 C 105.386719 337.242188 105.890625 337.484375 106.394531 337.714844 C 107.046875 338.183594 107.703125 338.652344 108.359375 339.109375 C 107.941406 338.914062 107.515625 338.71875 107.097656 338.523438 C 106.351562 338.023438 105.625 337.519531 104.886719 337.003906 Z M 110.898438 340.828125 C 111.699219 341.355469 112.5 341.875 113.308594 342.386719 C 113.164062 342.324219 113.011719 342.265625 112.867188 342.199219 C 111.9375 341.636719 111.003906 341.066406 110.085938 340.480469 C 110.355469 340.601562 110.621094 340.710938 110.890625 340.828125 Z M 131.84375 348.261719 C 131.882812 348.265625 131.917969 348.28125 131.953125 348.289062 C 132.285156 348.503906 132.625 348.722656 132.964844 348.9375 C 132.589844 348.714844 132.214844 348.492188 131.835938 348.261719 Z M 130.304688 347.285156 C 129.664062 346.867188 129.027344 346.441406 128.40625 346.011719 C 128.550781 346.058594 128.695312 346.101562 128.839844 346.136719 C 129.410156 346.554688 129.988281 346.960938 130.574219 347.363281 C 130.488281 347.34375 130.394531 347.3125 130.304688 347.292969 Z M 127.097656 345.089844 C 126.542969 344.683594 125.992188 344.28125 125.453125 343.867188 C 125.683594 343.941406 125.914062 344.011719 126.152344 344.078125 C 126.644531 344.476562 127.140625 344.863281 127.648438 345.246094 C 127.46875 345.195312 127.28125 345.148438 127.097656 345.089844 Z M 124.296875 342.964844 C 123.820312 342.589844 123.351562 342.214844 122.886719 341.824219 C 123.183594 341.917969 123.488281 342.003906 123.785156 342.097656 C 124.214844 342.472656 124.65625 342.851562 125.105469 343.21875 C 124.839844 343.136719 124.570312 343.050781 124.296875 342.964844 Z M 125.03125 342.464844 C 125.308594 342.546875 125.582031 342.617188 125.855469 342.691406 C 126.277344 343.066406 126.707031 343.433594 127.140625 343.804688 C 126.898438 343.730469 126.652344 343.664062 126.414062 343.59375 C 125.949219 343.21875 125.488281 342.84375 125.039062 342.464844 Z M 127.035156 343.015625 C 127.300781 343.089844 127.5625 343.167969 127.828125 343.234375 C 128.242188 343.609375 128.667969 343.984375 129.09375 344.351562 C 128.863281 344.285156 128.628906 344.222656 128.398438 344.164062 C 127.9375 343.789062 127.480469 343.40625 127.035156 343.015625 Z M 128.933594 343.515625 C 139.351562 346.164062 149.984375 347.53125 160.679688 347.53125 C 161.828125 347.53125 162.984375 347.515625 164.140625 347.480469 C 209.492188 346.238281 227.550781 338.097656 250.414062 327.789062 C 260.070312 323.433594 271.015625 318.5 285.230469 313.636719 C 304.421875 307.070312 322.640625 290.960938 336.523438 268.273438 C 337.753906 266.265625 338.9375 264.222656 340.078125 262.140625 C 326.972656 286.40625 308.382812 305.300781 287.246094 313.789062 C 276.042969 318.289062 266.984375 322.566406 258.226562 326.699219 C 233.207031 338.507812 213.433594 347.839844 167.140625 348.953125 C 154.691406 349.25 142.320312 347.777344 130.261719 344.640625 C 129.816406 344.265625 129.367188 343.890625 128.933594 343.5 Z M 327.242188 275.554688 C 310.628906 296.25 290.582031 308.515625 271.96875 309.289062 C 242.386719 310.511719 230.902344 315.421875 218.742188 320.621094 C 204.578125 326.675781 189.929688 332.9375 146.015625 334.96875 C 136.292969 335.417969 127.15625 334.40625 118.65625 332.367188 C 118.386719 332.023438 118.128906 331.667969 117.859375 331.320312 C 124.347656 332.773438 131.195312 333.609375 138.382812 333.609375 C 139.914062 333.609375 141.460938 333.574219 143.019531 333.496094 C 187.226562 331.320312 201.566406 325 214.214844 319.421875 C 226.359375 314.078125 236.839844 309.457031 269.777344 309.171875 C 288.992188 309.007812 309.882812 296.769531 327.234375 275.5625 Z M 117.84375 332.164062 C 117.347656 332.042969 116.847656 331.914062 116.351562 331.78125 C 116.082031 331.445312 115.816406 331.105469 115.546875 330.757812 C 116.054688 330.886719 116.566406 331.011719 117.078125 331.132812 C 117.332031 331.480469 117.59375 331.828125 117.84375 332.164062 Z M 115.496094 331.550781 C 114.96875 331.40625 114.441406 331.253906 113.914062 331.105469 C 113.640625 330.773438 113.375 330.441406 113.101562 330.105469 C 113.640625 330.257812 114.175781 330.410156 114.726562 330.554688 C 114.976562 330.886719 115.238281 331.21875 115.496094 331.550781 Z M 113.011719 330.835938 C 112.449219 330.664062 111.886719 330.488281 111.328125 330.316406 C 111.054688 330 110.789062 329.679688 110.519531 329.355469 C 111.089844 329.53125 111.664062 329.710938 112.238281 329.875 C 112.5 330.203125 112.753906 330.519531 113.011719 330.835938 Z M 109.898438 328.621094 C 109.632812 328.292969 109.359375 327.960938 109.089844 327.628906 C 109.691406 327.808594 110.289062 327.984375 110.882812 328.148438 C 111.140625 328.488281 111.402344 328.828125 111.667969 329.160156 C 111.078125 328.988281 110.484375 328.800781 109.898438 328.621094 Z M 108.503906 326.898438 C 108.265625 326.605469 108.035156 326.308594 107.804688 326.011719 C 108.425781 326.191406 109.046875 326.378906 109.675781 326.546875 C 109.898438 326.847656 110.128906 327.152344 110.363281 327.457031 C 109.746094 327.277344 109.125 327.085938 108.511719 326.898438 Z M 107.25 325.296875 C 101.84375 318.304688 96.925781 310.652344 91.789062 302.671875 C 80.671875 285.394531 68.074219 265.804688 47.105469 248.5625 C 34.976562 238.585938 24.929688 217.074219 19.546875 189.523438 C 19.417969 188.84375 19.289062 188.15625 19.164062 187.476562 C 18.636719 184.597656 18.183594 181.722656 17.800781 178.875 C 18.226562 181.785156 18.730469 184.71875 19.308594 187.671875 C 19.4375 188.351562 19.578125 189.039062 19.722656 189.71875 C 25.457031 217.160156 36.21875 239.132812 48.519531 248.503906 C 71.535156 266.035156 84.191406 286.578125 95.351562 304.703125 C 99.929688 312.140625 104.332031 319.277344 109.164062 325.851562 C 108.527344 325.671875 107.882812 325.484375 107.25 325.296875 Z M 12.394531 176.933594 C 12.402344 180.160156 12.488281 183.410156 12.679688 186.675781 C 12.714844 187.382812 12.757812 188.085938 12.808594 188.785156 C 14.570312 213.921875 21.027344 236.773438 31.003906 253.113281 C 38.980469 266.1875 48.050781 280.394531 58.394531 293.894531 C 53.332031 288.695312 48.664062 283.183594 44.390625 277.476562 C 38.839844 269.132812 33.988281 260.933594 29.710938 253.3125 C 19.929688 235.867188 14.019531 213.511719 12.640625 188.65625 C 12.605469 187.953125 12.570312 187.246094 12.539062 186.546875 C 12.402344 183.332031 12.359375 180.117188 12.394531 176.925781 Z M 37.648438 267.867188 C 34.339844 262.789062 31.335938 257.613281 28.621094 252.410156 C 28.828125 252.800781 29.03125 253.199219 29.25 253.582031 C 32.035156 258.542969 34.832031 263.304688 37.648438 267.867188 Z M 54.164062 298.386719 C 56.902344 301.457031 59.738281 304.421875 62.664062 307.265625 C 65.929688 310.4375 69.289062 313.433594 72.726562 316.28125 C 73.253906 316.78125 73.78125 317.277344 74.308594 317.769531 C 70.414062 314.597656 66.625 311.226562 62.953125 307.65625 C 60.136719 304.910156 57.429688 302.078125 54.8125 299.175781 C 54.597656 298.914062 54.371094 298.648438 54.15625 298.386719 Z M 65.207031 310.515625 C 69.953125 314.953125 74.894531 319.070312 79.996094 322.847656 C 80.714844 323.460938 81.4375 324.074219 82.160156 324.675781 C 76.953125 320.90625 71.925781 316.800781 67.085938 312.378906 C 66.457031 311.765625 65.828125 311.136719 65.199219 310.507812 Z M 84.539062 326.089844 C 87.125 327.875 89.753906 329.578125 92.410156 331.199219 C 93.21875 331.8125 94.035156 332.410156 94.847656 333.003906 C 92.265625 331.472656 89.71875 329.867188 87.210938 328.1875 C 86.316406 327.5 85.417969 326.796875 84.539062 326.082031 Z M 98.074219 334.484375 C 98.898438 334.941406 99.730469 335.394531 100.558594 335.835938 C 101.390625 336.421875 102.222656 336.984375 103.050781 337.546875 C 102.402344 337.214844 101.757812 336.882812 101.117188 336.535156 C 100.089844 335.863281 99.070312 335.179688 98.074219 334.484375 Z M 103.953125 337.578125 C 104.71875 337.960938 105.492188 338.34375 106.265625 338.71875 C 107.074219 339.265625 107.882812 339.800781 108.699219 340.328125 C 108.066406 340.03125 107.4375 339.722656 106.808594 339.417969 C 105.847656 338.8125 104.902344 338.203125 103.953125 337.578125 Z M 111.980469 342.378906 C 112.601562 342.753906 113.230469 343.132812 113.851562 343.492188 C 113.605469 343.382812 113.359375 343.277344 113.113281 343.167969 C 112.398438 342.769531 111.683594 342.359375 110.984375 341.945312 C 111.316406 342.097656 111.648438 342.234375 111.988281 342.378906 Z M 133.652344 348.742188 C 133.652344 348.742188 133.707031 348.757812 133.738281 348.765625 C 134.019531 348.953125 134.300781 349.132812 134.589844 349.316406 C 134.273438 349.125 133.960938 348.933594 133.652344 348.738281 Z M 132.214844 347.828125 C 131.5625 347.402344 130.925781 346.96875 130.300781 346.535156 C 130.429688 346.570312 130.566406 346.605469 130.695312 346.640625 C 131.265625 347.066406 131.851562 347.480469 132.4375 347.890625 C 132.359375 347.871094 132.285156 347.847656 132.207031 347.832031 Z M 129.0625 345.644531 C 128.527344 345.253906 128 344.859375 127.480469 344.453125 C 127.691406 344.511719 127.90625 344.570312 128.117188 344.625 C 128.601562 345.023438 129.085938 345.414062 129.582031 345.796875 C 129.410156 345.746094 129.238281 345.695312 129.0625 345.652344 Z M 129.402344 344.980469 C 129.605469 345.03125 129.808594 345.097656 130.011719 345.148438 C 130.480469 345.535156 130.949219 345.917969 131.433594 346.300781 C 131.273438 346.257812 131.121094 346.222656 130.964844 346.179688 C 130.4375 345.789062 129.917969 345.386719 129.402344 344.980469 Z M 131.214844 345.441406 C 141.941406 348.128906 152.910156 349.523438 163.953125 349.523438 C 165.015625 349.523438 166.078125 349.507812 167.144531 349.488281 C 213.550781 348.367188 233.363281 339.019531 258.445312 327.183594 C 267.191406 323.050781 276.242188 318.78125 287.433594 314.28125 C 306.546875 306.601562 324.417969 289.871094 337.738281 267.191406 C 338.84375 265.3125 339.90625 263.40625 340.929688 261.46875 C 328.347656 285.558594 310.339844 304.703125 289.417969 314.445312 C 281.554688 318.109375 274.609375 321.589844 267.894531 324.964844 C 238.933594 339.492188 218.015625 349.980469 170.152344 350.96875 C 157.503906 351.230469 144.957031 349.746094 132.746094 346.640625 C 132.226562 346.25 131.722656 345.855469 131.222656 345.449219 Z M 286.015625 305.757812 C 286.269531 305.671875 286.515625 305.582031 286.769531 305.496094 C 286.515625 305.582031 286.269531 305.671875 286.015625 305.757812 Z M 116.589844 330.46875 C 116.070312 330.34375 115.542969 330.222656 115.027344 330.085938 C 114.761719 329.730469 114.492188 329.378906 114.226562 329.023438 C 114.761719 329.152344 115.296875 329.277344 115.824219 329.390625 C 116.074219 329.753906 116.328125 330.105469 116.589844 330.46875 Z M 114.191406 329.863281 C 113.632812 329.710938 113.078125 329.558594 112.527344 329.40625 C 112.261719 329.066406 111.996094 328.726562 111.726562 328.386719 C 112.289062 328.539062 112.855469 328.683594 113.410156 328.820312 C 113.671875 329.167969 113.921875 329.523438 114.183594 329.863281 Z M 111.183594 327.6875 C 110.945312 327.375 110.707031 327.058594 110.46875 326.75 C 111.054688 326.898438 111.640625 327.050781 112.234375 327.195312 C 112.464844 327.519531 112.695312 327.839844 112.925781 328.15625 C 112.347656 328.003906 111.761719 327.851562 111.183594 327.6875 Z M 109.972656 326.070312 C 104.996094 319.367188 100.488281 312.046875 95.785156 304.414062 C 84.59375 286.246094 71.917969 265.660156 48.824219 248.070312 C 36.625 238.773438 25.925781 216.914062 20.21875 189.59375 C 20.082031 188.914062 19.945312 188.238281 19.808594 187.558594 C 19.25 184.726562 18.765625 181.910156 18.347656 179.113281 C 18.8125 181.972656 19.34375 184.863281 19.960938 187.761719 C 20.105469 188.4375 20.25 189.117188 20.398438 189.796875 C 26.539062 217.40625 37.699219 239.171875 50.261719 248.027344 C 75.355469 265.714844 87.941406 287.171875 99.042969 306.101562 C 103.253906 313.285156 107.300781 320.175781 111.769531 326.53125 C 111.171875 326.378906 110.570312 326.226562 109.972656 326.070312 Z M 11.875 176.789062 C 11.832031 180.039062 11.875 183.304688 12.019531 186.574219 C 12.050781 187.28125 12.078125 187.992188 12.121094 188.691406 C 13.25 208.890625 17.351562 227.4375 24.082031 243.070312 C 21.636719 237.652344 19.511719 232.265625 17.71875 226.984375 C 14.460938 214.976562 12.503906 202.039062 11.949219 188.582031 C 11.917969 187.875 11.898438 187.175781 11.875 186.46875 C 11.78125 183.238281 11.789062 180.007812 11.875 176.792969 Z M 52.328125 297.101562 C 52.523438 297.347656 52.71875 297.59375 52.914062 297.832031 C 50.574219 295.128906 48.304688 292.363281 46.144531 289.539062 C 48.136719 292.117188 50.203125 294.640625 52.328125 297.101562 Z M 88.367188 329.578125 C 88.53125 329.703125 88.699219 329.832031 88.863281 329.957031 C 86.421875 328.351562 84.023438 326.691406 81.671875 324.972656 C 83.875 326.566406 86.105469 328.105469 88.367188 329.585938 Z M 80.007812 323.742188 C 79.828125 323.605469 79.648438 323.46875 79.46875 323.339844 C 79.648438 323.476562 79.828125 323.613281 80.007812 323.742188 Z M 93.648438 332.902344 C 95.539062 334.042969 97.460938 335.136719 99.390625 336.191406 C 99.800781 336.464844 100.210938 336.746094 100.625 337.011719 C 98.585938 335.902344 96.570312 334.738281 94.578125 333.539062 C 94.269531 333.328125 93.957031 333.113281 93.648438 332.894531 Z M 105.867188 339.546875 C 106.222656 339.722656 106.570312 339.894531 106.921875 340.070312 C 107.464844 340.40625 108.015625 340.746094 108.554688 341.078125 C 108.339844 340.980469 108.121094 340.878906 107.914062 340.777344 C 107.226562 340.371094 106.539062 339.96875 105.867188 339.554688 Z M 135.332031 349.171875 C 135.332031 349.171875 135.382812 349.183594 135.40625 349.183594 C 135.652344 349.351562 135.90625 349.515625 136.15625 349.675781 C 135.882812 349.507812 135.609375 349.335938 135.332031 349.164062 Z M 133.953125 348.28125 C 133.339844 347.871094 132.734375 347.457031 132.132812 347.03125 C 132.257812 347.0625 132.371094 347.089844 132.496094 347.117188 C 133.042969 347.53125 133.601562 347.933594 134.164062 348.332031 C 134.089844 348.3125 134.019531 348.296875 133.953125 348.273438 Z M 133.839844 347.449219 C 144.78125 350.132812 155.984375 351.519531 167.285156 351.519531 C 168.238281 351.519531 169.199219 351.511719 170.152344 351.488281 C 218.128906 350.5 239.101562 339.980469 268.117188 325.433594 C 274.835938 322.066406 281.777344 318.585938 289.628906 314.921875 C 308.648438 306.058594 326.160156 288.714844 338.929688 266.070312 C 339.289062 265.433594 339.644531 264.792969 339.992188 264.148438 C 328.007812 286.476562 311.277344 304.570312 291.59375 315.097656 C 287.621094 317.21875 283.808594 319.292969 280.121094 321.300781 C 247.226562 339.195312 223.460938 352.117188 173.164062 352.96875 C 160.464844 353.1875 147.894531 351.734375 135.667969 348.730469 C 135.042969 348.3125 134.4375 347.890625 133.847656 347.457031 Z M 269.148438 308.039062 C 278.300781 308.039062 287.859375 305.324219 297.269531 300.179688 C 288.039062 305.289062 278.496094 308.117188 269.148438 308.039062 Z M 211.664062 316.441406 C 198.996094 322.125 184.628906 328.5625 139.964844 330.960938 C 138.460938 331.039062 136.972656 331.074219 135.472656 331.074219 C 128.984375 331.074219 122.519531 330.351562 116.132812 328.9375 C 115.894531 328.589844 115.648438 328.25 115.410156 327.902344 C 121.007812 329.039062 126.652344 329.617188 132.3125 329.617188 C 133.859375 329.617188 135.421875 329.574219 136.964844 329.484375 C 182.367188 326.972656 197.007812 320.152344 208.777344 314.679688 C 220.515625 309.214844 229.789062 304.898438 265.335938 307.878906 C 265.777344 307.917969 266.21875 307.9375 266.65625 307.96875 C 233.582031 306.617188 223.886719 310.957031 211.652344 316.449219 Z M 115.367188 328.757812 C 114.820312 328.632812 114.269531 328.503906 113.726562 328.367188 C 113.488281 328.035156 113.246094 327.710938 113.003906 327.375 C 113.5625 327.507812 114.117188 327.628906 114.675781 327.746094 C 114.90625 328.085938 115.136719 328.425781 115.367188 328.757812 Z M 112.550781 326.734375 C 107.949219 320.253906 103.808594 313.195312 99.496094 305.84375 C 88.367188 286.867188 75.746094 265.355469 50.566406 247.601562 C 38.113281 238.824219 27.023438 217.167969 20.914062 189.6875 C 20.761719 189.007812 20.617188 188.335938 20.472656 187.660156 C 19.878906 184.835938 19.359375 182.03125 18.90625 179.25 C 19.902344 184.949219 21.195312 190.722656 22.753906 196.421875 C 29.574219 221.261719 40.242188 239.898438 52.015625 247.570312 C 79.164062 265.253906 91.558594 287.558594 102.503906 307.25 C 106.382812 314.230469 110.109375 320.933594 114.253906 327.125 C 113.683594 327 113.121094 326.878906 112.550781 326.742188 Z M 11.246094 186.445312 C 11.246094 185.269531 11.269531 184.097656 11.289062 182.925781 C 11.296875 184.113281 11.320312 185.289062 11.355469 186.472656 C 11.378906 187.183594 11.398438 187.890625 11.429688 188.597656 C 11.863281 199.078125 13.148438 209.25 15.226562 218.914062 C 14.554688 216.515625 13.957031 214.15625 13.421875 211.835938 C 12.238281 204.382812 11.507812 196.769531 11.277344 189.058594 C 11.261719 188.1875 11.242188 187.320312 11.242188 186.445312 Z M 105.898438 340.609375 C 106.773438 341.042969 107.652344 341.46875 108.535156 341.890625 C 110.371094 342.945312 112.21875 343.960938 114.089844 344.929688 C 114.03125 344.910156 113.972656 344.878906 113.921875 344.859375 C 111.214844 343.519531 108.535156 342.113281 105.898438 340.617188 Z M 136.964844 349.566406 C 147.988281 352.167969 159.285156 353.511719 170.691406 353.511719 C 171.515625 353.511719 172.347656 353.511719 173.179688 353.488281 C 223.605469 352.636719 247.421875 339.6875 280.375 321.757812 C 284.058594 319.75 287.875 317.683594 291.847656 315.550781 C 309.964844 305.863281 325.855469 289.699219 338.011719 268.636719 C 326.75 288.433594 311.632812 304.875 293.78125 315.738281 C 254.574219 339.613281 227.917969 354.285156 176.183594 354.964844 C 163.636719 355.128906 151.234375 353.742188 139.167969 350.910156 C 138.417969 350.46875 137.679688 350.023438 136.960938 349.566406 Z M 357.90625 207.972656 C 357.660156 209.335938 357.394531 210.710938 357.105469 212.074219 C 356.867188 213.195312 356.613281 214.3125 356.351562 215.425781 C 356.25 215.851562 356.152344 216.277344 356.042969 216.703125 C 355.949219 217.066406 355.863281 217.425781 355.769531 217.796875 C 355.738281 217.910156 355.703125 218.035156 355.671875 218.148438 C 355.015625 220.632812 354.292969 223.113281 353.507812 225.574219 C 347.417969 244.152344 337.628906 261.816406 325.140625 276.285156 C 306.683594 297.671875 284.910156 309 265.402344 307.367188 C 229.710938 304.375 220.382812 308.71875 208.574219 314.207031 C 196.847656 319.660156 182.25 326.460938 136.953125 328.964844 C 129.597656 329.371094 122.25 328.808594 115 327.289062 C 110.730469 320.992188 106.921875 314.136719 102.957031 307 C 91.992188 287.257812 79.5625 264.886719 52.304688 247.136719 C 40.640625 239.539062 30.050781 221.003906 23.261719 196.285156 C 17.8125 176.457031 15.734375 155.746094 17.472656 140.273438 C 37.765625 66.664062 105.285156 12.453125 185.242188 12.453125 C 281.183594 12.453125 359.234375 90.507812 359.234375 186.445312 C 359.234375 193.734375 358.78125 200.914062 357.90625 207.972656 Z M 79.214844 324.046875 C 81.324219 325.757812 83.453125 327.414062 85.621094 329.007812 C 76.707031 322.761719 68.414062 315.703125 60.832031 307.9375 C 66.652344 313.796875 72.792969 319.171875 79.214844 324.039062 Z M 140.789062 351.8125 C 151.703125 354.242188 162.878906 355.496094 174.175781 355.496094 C 174.847656 355.496094 175.527344 355.496094 176.199219 355.484375 C 228.0625 354.804688 254.773438 340.105469 294.0625 316.1875 C 309.964844 306.507812 323.96875 292.234375 335.050781 274.515625 C 324.714844 291.316406 311.480469 305.691406 295.972656 316.390625 C 260.140625 341.109375 228.113281 356.515625 179.210938 356.964844 C 166.957031 357.074219 154.953125 355.742188 143.34375 353.144531 C 142.46875 352.71875 141.617188 352.269531 140.789062 351.8125 Z M 298.152344 317.039062 C 261.679688 345.441406 224.839844 358.761719 182.222656 358.964844 C 181.953125 358.964844 181.6875 358.964844 181.421875 358.964844 C 170.699219 358.964844 160.203125 357.945312 150.019531 356.011719 C 148.582031 355.476562 147.1875 354.90625 145.84375 354.304688 C 156.261719 356.40625 166.929688 357.484375 177.734375 357.484375 C 178.226562 357.484375 178.726562 357.484375 179.21875 357.484375 C 228.257812 357.035156 260.359375 341.59375 296.273438 316.816406 C 308.085938 308.667969 318.574219 298.394531 327.480469 286.554688 C 326.65625 287.71875 325.824219 288.867188 324.980469 290.007812 C 317.171875 300.121094 308.191406 309.230469 298.160156 317.039062 Z M 298.152344 317.039062 " fill-opacity="1" fill-rule="nonzero"/></g><g fill="#ffffff" fill-opacity="1"><g transform="translate(107.217969, 63.703097)"><g><path d="M 3.90625 -14.859375 L 7.890625 -2.5625 L 4.5 -1.453125 L 0.515625 -13.75 L -3.859375 -12.328125 L -4.859375 -15.40625 L 7.296875 -19.359375 L 8.296875 -16.28125 Z M 3.90625 -14.859375 "/></g></g></g><g fill="#ffffff" fill-opacity="1"><g transform="translate(136.726075, 55.824785)"><g><path d="M 10.265625 -4.640625 L 10.703125 -1.4375 L 1.40625 -0.1875 L -0.75 -16.203125 L 8.546875 -17.453125 L 8.984375 -14.25 L 3.21875 -13.484375 L 3.640625 -10.296875 L 9.15625 -11.03125 L 9.59375 -7.828125 L 4.078125 -7.09375 L 4.5 -3.875 Z M 10.265625 -4.640625 "/></g></g></g><g fill="#ffffff" fill-opacity="1"><g transform="translate(166.367939, 53.386863)"><g><path d="M 5.25 -5.5625 L 4.984375 0.21875 L 1.421875 0.0625 L 2.140625 -16.078125 L 4.828125 -15.953125 L 5.703125 -15.921875 L 8.203125 -15.796875 C 9.066406 -15.765625 9.863281 -15.515625 10.59375 -15.046875 C 11.332031 -14.578125 11.910156 -13.941406 12.328125 -13.140625 C 12.753906 -12.347656 12.945312 -11.4375 12.90625 -10.40625 C 12.851562 -9.3125 12.578125 -8.390625 12.078125 -7.640625 C 11.585938 -6.890625 10.957031 -6.328125 10.1875 -5.953125 C 9.425781 -5.578125 8.613281 -5.40625 7.75 -5.4375 Z M 7.484375 -13.03125 L 5.578125 -13.125 L 5.375 -8.34375 L 7.28125 -8.25 C 7.789062 -8.226562 8.28125 -8.410156 8.75 -8.796875 C 9.21875 -9.191406 9.472656 -9.78125 9.515625 -10.5625 C 9.546875 -11.300781 9.34375 -11.890625 8.90625 -12.328125 C 8.46875 -12.773438 7.992188 -13.007812 7.484375 -13.03125 Z M 7.484375 -13.03125 "/></g></g></g><g fill="#ffffff" fill-opacity="1"><g transform="translate(196.523104, 56.32645)"><g><path d="M 6.15625 -4.53125 L 4.859375 1.109375 L 1.390625 0.3125 L 5 -15.4375 L 7.609375 -14.828125 L 8.46875 -14.640625 L 10.90625 -14.078125 C 11.757812 -13.878906 12.503906 -13.484375 13.140625 -12.890625 C 13.773438 -12.304688 14.226562 -11.582031 14.5 -10.71875 C 14.769531 -9.863281 14.789062 -8.929688 14.5625 -7.921875 C 14.320312 -6.859375 13.890625 -6 13.265625 -5.34375 C 12.640625 -4.695312 11.914062 -4.253906 11.09375 -4.015625 C 10.28125 -3.785156 9.445312 -3.769531 8.59375 -3.96875 Z M 9.703125 -11.46875 L 7.84375 -11.90625 L 6.78125 -7.25 L 8.640625 -6.8125 C 9.148438 -6.695312 9.664062 -6.789062 10.1875 -7.09375 C 10.71875 -7.394531 11.070312 -7.925781 11.25 -8.6875 C 11.414062 -9.40625 11.328125 -10.019531 10.984375 -10.53125 C 10.640625 -11.039062 10.210938 -11.351562 9.703125 -11.46875 Z M 9.703125 -11.46875 "/></g></g></g><g fill="#ffffff" fill-opacity="1"><g transform="translate(225.763951, 64.771378)"><g><path d="M 4.609375 1.890625 L 1.3125 0.53125 L 7.421875 -14.421875 L 10.71875 -13.0625 Z M 4.609375 1.890625 "/></g></g></g><g fill="#ffffff" fill-opacity="1"><g transform="translate(247.549978, 74.81594)"><g><path d="M 14 2.359375 L 17.359375 4.484375 C 16.453125 5.222656 15.4375 5.75 14.3125 6.0625 C 13.195312 6.382812 12.0625 6.46875 10.90625 6.3125 C 9.75 6.164062 8.648438 5.757812 7.609375 5.09375 C 6.640625 4.488281 5.84375 3.734375 5.21875 2.828125 C 4.601562 1.921875 4.171875 0.941406 3.921875 -0.109375 C 3.679688 -1.171875 3.648438 -2.242188 3.828125 -3.328125 C 4.015625 -4.410156 4.414062 -5.429688 5.03125 -6.390625 C 5.632812 -7.359375 6.382812 -8.148438 7.28125 -8.765625 C 8.1875 -9.390625 9.164062 -9.816406 10.21875 -10.046875 C 11.28125 -10.285156 12.347656 -10.3125 13.421875 -10.125 C 14.503906 -9.945312 15.53125 -9.554688 16.5 -8.953125 C 17.539062 -8.285156 18.375 -7.460938 19 -6.484375 C 19.632812 -5.515625 20.050781 -4.460938 20.25 -3.328125 C 20.457031 -2.191406 20.421875 -1.0625 20.140625 0.0625 L 16.78125 -2.0625 C 16.882812 -2.851562 16.742188 -3.617188 16.359375 -4.359375 C 15.972656 -5.109375 15.429688 -5.707031 14.734375 -6.15625 C 13.992188 -6.613281 13.195312 -6.84375 12.34375 -6.84375 C 11.5 -6.851562 10.695312 -6.648438 9.9375 -6.234375 C 9.1875 -5.816406 8.566406 -5.222656 8.078125 -4.453125 C 7.578125 -3.671875 7.300781 -2.847656 7.25 -1.984375 C 7.207031 -1.128906 7.367188 -0.320312 7.734375 0.4375 C 8.097656 1.207031 8.648438 1.820312 9.390625 2.28125 C 10.097656 2.726562 10.875 2.957031 11.71875 2.96875 C 12.570312 2.988281 13.332031 2.785156 14 2.359375 Z M 14 2.359375 "/></g></g></g><g fill="#ffffff" fill-opacity="1"><g transform="translate(276.07504, 95.075959)"><g><path d="M 18.625 -4.484375 L 21.359375 -1.859375 L 10.15625 9.78125 L 7.421875 7.15625 L 11.921875 2.484375 L 8.09375 -1.21875 L 3.59375 3.453125 L 1.03125 0.984375 L 12.234375 -10.65625 L 14.796875 -8.1875 L 10.328125 -3.546875 L 14.15625 0.15625 Z M 18.625 -4.484375 "/></g></g></g><g fill="#ffffff" fill-opacity="1"><g transform="translate(298.586344, 119.384984)"><g/></g></g><g fill="#ffffff" fill-opacity="1"><g transform="translate(311.692868, 138.953205)"><g><path d="M 10.09375 6.375 L 14.328125 1.96875 L 8.25 2.71875 Z M 7.265625 14.53125 L 5.5625 11.109375 L 7.953125 8.625 L 5.1875 3.109375 L 1.765625 3.515625 L 0.0625 0.109375 L 17.4375 -1.265625 L 18.796875 1.4375 Z M 7.265625 14.53125 "/></g></g></g><g fill="#ffffff" fill-opacity="1"><g transform="translate(325.153887, 169.943596)"><g><path d="M 6.90625 3.25 L 1.34375 4.796875 L 0.375 1.375 L 15.9375 -2.96875 L 16.671875 -0.390625 L 16.90625 0.453125 L 17.578125 2.859375 C 17.804688 3.703125 17.8125 4.539062 17.59375 5.375 C 17.382812 6.21875 16.96875 6.960938 16.34375 7.609375 C 15.71875 8.265625 14.910156 8.734375 13.921875 9.015625 C 13.046875 9.253906 12.226562 9.304688 11.46875 9.171875 C 10.707031 9.046875 10.035156 8.773438 9.453125 8.359375 C 8.878906 7.941406 8.421875 7.429688 8.078125 6.828125 L 3.59375 12.875 L 2.375 8.53125 L 6.90625 3.28125 Z M 14.734375 3.046875 L 14.21875 1.203125 L 9.609375 2.484375 L 10.125 4.328125 C 10.257812 4.828125 10.582031 5.238281 11.09375 5.5625 C 11.613281 5.894531 12.25 5.957031 13 5.75 C 13.707031 5.550781 14.207031 5.175781 14.5 4.625 C 14.789062 4.070312 14.867188 3.546875 14.734375 3.046875 Z M 14.734375 3.046875 "/></g></g></g><g fill="#ffffff" fill-opacity="1"><g transform="translate(331.830432, 199.800237)"><g><path d="M 13.625 7.109375 L 0.75 8.265625 L 0.421875 4.71875 L 13.296875 3.5625 L 12.890625 -1.03125 L 16.109375 -1.328125 L 17.25 11.40625 L 14.03125 11.703125 Z M 13.625 7.109375 "/></g></g></g><g fill="#ffffff" fill-opacity="1"><g transform="translate(132.484054, 289.393707)"><g><path d="M 91.78125 -163.46875 L 144.359375 -13.390625 C 145.628906 -9.722656 147.378906 -6.851562 149.609375 -4.78125 C 151.835938 -2.707031 155.101562 -1.75 159.40625 -1.90625 L 159.40625 0 L 111.140625 0 L 111.140625 -1.90625 C 115.273438 -1.75 118.179688 -2.625 119.859375 -4.53125 C 121.535156 -6.445312 121.734375 -9.398438 120.453125 -13.390625 L 104.203125 -59.515625 C 100.054688 -50.742188 94.554688 -45.28125 87.703125 -43.125 C 80.859375 -40.976562 72.65625 -41.421875 63.09375 -44.453125 C 60.707031 -45.253906 57.878906 -46.210938 54.609375 -47.328125 C 51.347656 -48.441406 48.003906 -49.195312 44.578125 -49.59375 C 41.148438 -49.988281 38.039062 -49.585938 35.25 -48.390625 C 32.457031 -47.203125 30.425781 -44.695312 29.15625 -40.875 L 24.140625 -27.484375 C 23.503906 -25.410156 23.1875 -23.457031 23.1875 -21.625 C 23.1875 -19.789062 23.503906 -17.84375 24.140625 -15.78125 C 24.453125 -14.976562 24.769531 -14.097656 25.09375 -13.140625 C 25.414062 -12.191406 25.65625 -11.316406 25.8125 -10.515625 C 27.082031 -7.015625 28.875 -4.664062 31.1875 -3.46875 C 33.5 -2.269531 36.566406 -1.75 40.390625 -1.90625 L 40.390625 0 C 34.492188 0 27.679688 0 19.953125 0 C 12.222656 0 5.570312 0 0 0 L 0 -1.90625 C 3.820312 -1.75 6.925781 -2.625 9.3125 -4.53125 C 11.707031 -6.445312 13.460938 -9.078125 14.578125 -12.421875 L 67.640625 -163.46875 Z M 102.765625 -64.296875 L 70.03125 -157.265625 L 34.65625 -57.125 C 38.800781 -62.539062 43.898438 -65.765625 49.953125 -66.796875 C 56.003906 -67.835938 62.9375 -67.003906 70.75 -64.296875 C 74.40625 -63.179688 78.144531 -61.984375 81.96875 -60.703125 C 85.800781 -59.429688 89.507812 -58.914062 93.09375 -59.15625 C 96.675781 -59.394531 99.898438 -61.109375 102.765625 -64.296875 Z M 102.765625 -64.296875 "/></g></g></g><g fill="#ffffff" fill-opacity="1"><g transform="translate(51.750001, 251.146859)"><g><path d="M 80.296875 -33.6875 C 80.296875 -21.101562 81.566406 -12.660156 84.109375 -8.359375 C 86.660156 -4.054688 90.488281 -1.988281 95.59375 -2.15625 L 95.59375 0 L 42.296875 0 L 42.296875 -2.15625 C 47.390625 -1.988281 51.210938 -4.054688 53.765625 -8.359375 C 56.316406 -12.660156 57.59375 -21.101562 57.59375 -33.6875 L 57.59375 -159.15625 L 51.375 -159.15625 C 45 -159.15625 38.46875 -157.800781 31.78125 -155.09375 C 25.09375 -152.382812 19.078125 -148.640625 13.734375 -143.859375 C 8.398438 -139.078125 4.539062 -133.582031 2.15625 -127.375 L 0 -127.375 L 9.796875 -163.453125 L 127.84375 -163.453125 L 137.890625 -127.375 L 135.734375 -127.375 C 133.347656 -133.582031 129.445312 -139.078125 124.03125 -143.859375 C 118.613281 -148.640625 112.597656 -152.382812 105.984375 -155.09375 C 99.367188 -157.800781 92.796875 -159.15625 86.265625 -159.15625 L 80.296875 -159.15625 Z M 80.296875 -33.6875 "/></g></g></g></svg>